<svg xmlns="http://www.w3.org/2000/svg" viewBox="0 0 422.667 422.667">
  <path d="M250.534 40.667c-12-14-22.8-26.4-31.2-36.8-.4-.8-1.2-1.2-1.6-1.6-4.4-3.6-10.8-2.8-14.4 1.6-8.4 10.4-19.2 22.8-31.2 36.8-52.8 61.2-126 146-126 216.8 0 45.6 18.4 86.8 48.4 116.8 30 29.6 71.2 48.4 116.8 48.4 45.6 0 86.8-18.4 116.8-48.4s48.4-71.2 48.4-116.8c0-70.8-73.2-155.6-126-216.8zm63.2 318.8c-26.4 26.4-62.4 42.8-102.4 42.8s-76-16.4-102.4-42.4c-26-26-42.4-62.4-42.4-102.4 0-63.2 70.4-144.8 121.2-203.6 8.4-10 16.4-19.2 23.6-28 7.2 8.8 15.2 18 23.6 27.6 50.8 58.8 121.2 140 121.2 203.6 0 40-16.4 76-42.4 102.4z"/>
</svg>