<svg xmlns="http://www.w3.org/2000/svg" viewBox="0 0 538.58 538.58">
  <style>
    .st0{fill:#e5f4f3}.st2,.st3{fill:#fff}.st3{opacity:.8}.st4{fill:none;stroke:#346642;stroke-width:8;stroke-miterlimit:10}.st5{fill:#346642}.st6{fill:#50aa50}.st8{fill:#4cae50}.st9{fill:#398e3d}.st10{fill:#00cfff}.st12{fill:#a4ffff}.st13{fill:#603714}.st14{fill:#7c4115}.st15{fill:#aa561d}.st16,.st17{fill:none;stroke:#398e3d;stroke-width:18.9278;stroke-linecap:round;stroke-miterlimit:10}.st17{stroke:#a4ffff;stroke-width:16}.st18{fill:#1ae51a}.st21{fill:none;stroke:#4cae50;stroke-width:6;stroke-miterlimit:10}.st25{fill:#bc5e11}.st27{fill:#ce8452}.st28{fill:#9cf}.st30{fill:#93c9ba}.st37{fill:#cce5e2}.st39{fill:#85a1ad}.st40{fill:#3e5c61}.st44{fill:#7ee3ed}.st46,.st47,.st59,.st60,.st61,.st64{fill:none;stroke:#3e5c61;stroke-width:6.0742;stroke-miterlimit:10}.st47,.st59,.st60,.st61,.st64{stroke:#fff;stroke-width:4.0494}.st59,.st60,.st61,.st64{stroke-width:4}.st60,.st61,.st64{stroke:#3e5c61}.st61,.st64{stroke-width:2}.st64{stroke-width:4.4955}.st65{stroke-width:4;stroke-dasharray:39.3161,39.3161}.st65,.st66,.st67{fill:none;stroke:#fff;stroke-miterlimit:10}.st66{stroke-width:4;stroke-dasharray:38.8226,38.8226}.st67{stroke-dasharray:39.2325,39.2325}.st67,.st68,.st69{stroke-width:4}.st68{fill:none;stroke:#fff;stroke-miterlimit:10;stroke-dasharray:39.5013,39.5013}.st69{stroke-dasharray:39.8029,39.8029}.st69,.st70,.st71{fill:none;stroke:#fff;stroke-miterlimit:10}.st70{stroke-width:4;stroke-dasharray:41.4646,41.4646}.st71{stroke-dasharray:39.5376,39.5376}.st71,.st72,.st73{stroke-width:4}.st72{fill:none;stroke:#fff;stroke-miterlimit:10;stroke-dasharray:42.095,42.095}.st73{stroke-dasharray:44.6401,44.6401}.st73,.st74,.st75{fill:none;stroke:#fff;stroke-miterlimit:10}.st74{stroke-dasharray:40.6602,40.6602;stroke-width:4}.st75{stroke-width:6.0266}
  </style>
  <g id="Layer_1">
    <path d="M-1241.57-1945.19h2597.26v1831.75h-2597.26z" class="st0"/>
    <path d="M1116.19-266.24h-2118.25c-58.07 0-105.15-47.08-105.15-105.15v-1315.85c0-58.07 47.08-105.15 105.15-105.15h2118.24c58.07 0 105.15 47.08 105.15 105.15v1315.85c.01 58.07-47.07 105.15-105.14 105.15z" class="st2" opacity=".3"/>
    <path d="M444.98-1112.5h-793.43a33.86 33.86 0 01-33.86-33.86v-324.17a33.86 33.86 0 0133.86-33.86h793.43a33.86 33.86 0 0133.86 33.86v324.17a33.86 33.86 0 01-33.86 33.86zM450.49-394.38h-804.46a28.35 28.35 0 01-28.35-28.35v-628.76a28.35 28.35 0 0128.35-28.35h804.46a28.35 28.35 0 0128.35 28.35v628.76a28.35 28.35 0 01-28.35 28.35z" class="st3"/>
    <path fill="none" stroke="#fff" stroke-miterlimit="10" stroke-width="16" d="M1116.19-266.24h-2118.25c-58.07 0-105.15-47.08-105.15-105.15v-1315.85c0-58.07 47.08-105.15 105.15-105.15h2118.24c58.07 0 105.15 47.08 105.15 105.15v1315.85c.01 58.07-47.07 105.15-105.14 105.15z"/>
    <path d="M-4073.75-1107.89c-13.54 8.3-28.38 12.47-44.11 13.53-19.54 1.32-38.43-.92-56.31-9.82-17.95-8.93-30.3-23.02-39.24-40.54-10.93-21.43-16.14-46.15-18.74-58.23-3.79-17.57-5.97-39.34-6.57-50.22-1.13-13.73-.82-28.05 1.2-36.51 1.66-6.45 9.31-6.52 15.74-6.44 28.6.36 57.09 1.73 85.22 7.32 20.03 3.98 39.29 10.09 57.11 20.4 22.88 13.23 36.89 32.66 41.61 58.61 4.87 26.74 2.19 52.53-10.49 76.91-2.27 4.36-8.11 11.87-12.2 15.53-4.39 4.55-13.22 9.46-13.22 9.46zM-3977.42-1096.46c-5.58-9.78-8.17-20.52-9.82-31.5-3.2-21.23-1.5-42.01 6.84-61.96 8.34-19.95 23.85-32.88 42.56-42.46 22.11-11.32 45.96-16.69 70.35-19.92 22.77-3.01 45.69-3.95 68.65-3.91 9.7 0 12.08 1.8 12.08 11.33-.14 33.37-1.77 66.6-9.48 99.24-4.33 18.34-10.72 35.89-21 51.81-13.43 20.81-32.82 33.12-56.83 37.48-31.51 5.73-61.16 1.09-87.31-18.85-.79-.6-1.44-1.37-2.16-2.05-10.22-11.28-13.88-19.21-13.88-19.21z" class="st8"/>
    <path d="M-3968.83-1093.12c19.74-24.37 42.89-44.69 70.43-59.87 4.79-2.64 9.58-5.3 14.53-7.6 4.03-1.87 8.27-2.67 12.15.68 6.43 5.54 5.64 12.91-2.05 16.66a256.33 256.33 0 00-35.34 20.67 199.51 199.51 0 00-52.15 53.83c-.82 1.24-4 5.95-4.81 7.27-18.3 29.87-29.33 62.42-35.53 96.74a392.4 392.4 0 00-6.19 69.27c0 2.31-.06 4.6-.66 6.86a9.7 9.7 0 01-9.8 7.48 9.46 9.46 0 01-9.35-7.98c-.37-2.12-.53-4.3-.54-6.45-.1-29.02-1.71-57.95-5.51-86.74-4.87-36.86-13.46-72.75-28.44-106.92-.96-2.19-10.6-20.99-14.8-27.98a186.85 186.85 0 00-33.86-41.71c-9.22-8.46-19.56-15.51-29.8-22.67a30 30 0 01-5.73-5.21c-3.28-3.88-3.08-8.99.27-12.96 2.85-3.38 8.69-4.35 12.56-1.62 10.43 7.37 21.01 14.55 30.8 22.79 22.33 18.81 39.4 41.72 52.53 67.67.45.89 1.03 1.72 1.54 2.57a359.47 359.47 0 0122.9 62.27 477.22 477.22 0 019.28 43.47c.26 1.56.4 3.14 1.41 4.82a248.93 248.93 0 0114.12-42.17 245.94 245.94 0 0122.01-39.57c.96-1.36 7.52-10.5 10.03-13.6z" class="st9"/>
    <path d="M-4112.17-1550.61c-9.3-23.8-30.72-50.78-40.74-50.78-11.67 0-33.41 28.79-41.79 53.12a45.2 45.2 0 1082.53-2.34zM-3972.32-1415.91c-9.3-23.8-30.72-50.78-40.74-50.78-11.67 0-33.41 28.79-41.79 53.12a45.2 45.2 0 1082.53-2.34zM-3826.1-1548.59c-9.3-23.8-30.72-50.78-40.74-50.78-11.67 0-33.41 28.79-41.79 53.12a45.2 45.2 0 1082.53-2.34z" class="st10"/>
    <path d="M-4666.2-1149.62c-13.54 8.3-28.38 12.47-44.11 13.53-19.54 1.32-38.43-.92-56.31-9.82-17.95-8.93-30.3-23.02-39.24-40.54-10.93-21.43-16.14-46.15-18.75-58.23-3.79-17.57-5.97-39.34-6.57-50.22-1.13-13.73-.82-28.05 1.2-36.51 1.66-6.45 9.31-6.52 15.74-6.44 28.6.36 57.09 1.73 85.22 7.32 20.03 3.98 39.29 10.09 57.11 20.4 22.88 13.23 36.89 32.66 41.61 58.61 4.87 26.74 2.19 52.53-10.49 76.91-2.27 4.36-8.11 11.87-12.2 15.53-4.39 4.55-13.21 9.46-13.21 9.46zM-4569.88-1138.19c-5.58-9.78-8.17-20.52-9.82-31.5-3.2-21.23-1.5-42.01 6.84-61.96 8.34-19.95 23.85-32.88 42.56-42.46 22.11-11.32 45.96-16.69 70.35-19.92 22.77-3.01 45.69-3.95 68.65-3.91 9.7 0 12.08 1.8 12.08 11.33-.14 33.37-1.77 66.6-9.48 99.24-4.33 18.34-10.72 35.89-21 51.81-13.43 20.81-32.82 33.12-56.83 37.48-31.51 5.73-61.16 1.09-87.31-18.85-.79-.6-1.44-1.37-2.16-2.05-10.21-11.28-13.88-19.21-13.88-19.21z" class="st8"/>
    <path d="M-4561.29-1134.85c19.74-24.37 42.89-44.69 70.43-59.87 4.79-2.64 9.58-5.3 14.53-7.6 4.03-1.87 8.27-2.67 12.15.68 6.43 5.54 5.64 12.91-2.05 16.66a257.03 257.03 0 00-35.35 20.67 199.51 199.51 0 00-52.15 53.83c-.82 1.24-4 5.95-4.81 7.27-18.3 29.87-29.33 62.42-35.53 96.74a392.4 392.4 0 00-6.19 69.27c0 2.31-.06 4.6-.66 6.86a9.7 9.7 0 01-9.8 7.48 9.46 9.46 0 01-9.35-7.98c-.37-2.12-.53-4.3-.54-6.45-.1-29.02-1.71-57.95-5.51-86.74-4.87-36.86-13.46-72.75-28.44-106.92-.96-2.19-10.6-20.99-14.8-27.98a186.85 186.85 0 00-33.86-41.71c-9.22-8.46-19.56-15.51-29.8-22.67a30 30 0 01-5.73-5.21c-3.28-3.88-3.08-8.99.27-12.96 2.85-3.38 8.69-4.35 12.56-1.62 10.43 7.37 21.01 14.55 30.8 22.79 22.33 18.81 39.4 41.72 52.53 67.67.45.89 1.03 1.72 1.54 2.57a359.47 359.47 0 0122.9 62.27 477.22 477.22 0 019.28 43.47c.26 1.56.4 3.14 1.41 4.82a248.93 248.93 0 0114.12-42.17 245.94 245.94 0 0122.01-39.57c.97-1.36 7.54-10.5 10.04-13.6z" class="st9"/>
    <path fill="#47301a" d="M-4499.32-922.85c0 21.77-218.19 18.05-218.19 0 0-60.25 48.84-109.1 109.1-109.1 60.25 0 109.09 48.85 109.09 109.1z"/>
    <path d="M-4704.62-1592.34c-9.3-23.8-30.72-50.78-40.74-50.78-11.67 0-33.41 28.79-41.79 53.12a45.2 45.2 0 1082.53-2.34z" class="st10"/>
    <circle cx="-4726.69" cy="-1567.14" r="16.16" class="st12"/>
    <path d="M-4564.78-1457.64c-9.3-23.8-30.72-50.78-40.74-50.78-11.67 0-33.41 28.79-41.79 53.12a45.2 45.2 0 1082.53-2.34z" class="st10"/>
    <circle cx="-4586.85" cy="-1432.45" r="16.16" class="st12"/>
    <path d="M-4418.55-1590.32c-9.3-23.8-30.72-50.78-40.74-50.78-11.67 0-33.41 28.79-41.79 53.12a45.2 45.2 0 1082.53-2.34z" class="st10"/>
    <circle cx="-4440.62" cy="-1565.13" r="16.16" class="st12"/>
    <circle cx="-4678.3" cy="-955.98" r="15.07" class="st13"/>
    <circle cx="-4623.47" cy="-939.53" r="15.07" class="st13"/>
    <circle cx="-4585.53" cy="-992.04" r="10.5" class="st14"/>
    <circle cx="-4567.22" cy="-954.59" r="10.5" class="st14"/>
    <circle cx="-4648.67" cy="-960.55" r="10.5" class="st14"/>
    <circle cx="-4536.04" cy="-959.05" r="12" class="st15"/>
    <circle cx="-4608.41" cy="-1009.45" r="12" class="st15"/>
    <path d="M-4690.71-1200.39a160.16 160.16 0 01-72.16 9.64M-4495.44-1184.68a65.32 65.32 0 0113.45-46.87M-4526.44-1153.54a92.12 92.12 0 0073.82 7.63M-4717.19-1226.08a145.5 145.5 0 01-54.81-53.95M-4469.06-1194.8c24.42-10.09 48.08-31.28 58.45-58.25M-4529.15-1158.56a71.33 71.33 0 01-7.98-55.51M-4716.08-1231.79c5.55-6.66 7.15-15.91 6.21-24.53-.94-8.61-4.16-16.79-7.35-24.85" class="st16"/>
    <path d="M-4129.08-1541.01a26.67 26.67 0 01-5.58 27.23M-3988.77-1406.89a26.64 26.64 0 01-5.58 27.23M-3842.47-1541.01a26.67 26.67 0 01-5.58 27.23" class="st17"/>
    <path d="M-4073.75-1107.62c-13.54 8.3-28.38 12.47-44.11 13.53-19.54 1.32-38.43-.92-56.31-9.82-17.95-8.93-30.3-23.02-39.24-40.54-10.93-21.43-16.14-46.15-18.74-58.23-3.79-17.57-5.97-39.34-6.57-50.22-1.13-13.73-.82-28.05 1.2-36.51 1.66-6.45 9.31-6.52 15.74-6.44 28.6.36 186.13 138.87 173.45 163.25-2.27 4.36-8.11 11.87-12.2 15.53-4.39 4.54-13.22 9.45-13.22 9.45zM-3977.42-1096.46c-5.58-9.78-8.17-20.52-9.82-31.5-3.2-21.23-1.5-42.01 6.84-61.96 8.34-19.95 23.85-32.88 42.56-42.46 22.11-11.32 45.96-16.69 70.35-19.92 22.77-3.01 45.69-3.95 68.65-3.91 9.7 0 12.08 1.8 12.08 11.33-.14 33.37-148.46 189.63-174.61 169.68-.79-.6-1.44-1.37-2.16-2.05-10.23-11.28-13.89-19.21-13.89-19.21z" class="st18"/>
    <linearGradient id="SVGID_1_" x1="-3613.18" x2="-3402.63" y1="-862.41" y2="-862.41" gradientTransform="matrix(1 0 0 -1 0 -2059.11)" gradientUnits="userSpaceOnUse">
      <stop offset="0" stop-color="#1ae51a"/>
      <stop offset="1" stop-color="#4cae50"/>
    </linearGradient>
    <path fill="url(#SVGID_1_)" d="M-3407.24-1158c-4.55-18.48-15.61-36.3-32.85-44.35-9.24-4.31-19.59-5.57-29.24-8.85a73.55 73.55 0 01-35.98-26.76c-9.56-13.41-14.63-30.1-26.53-41.49-12.12-11.6-29.27-15.81-44.72-22.37-15.45-6.56-31.21-18.07-33.05-34.75a577.84 577.84 0 00-3.56 67.19c.17 32.35 6.54 70.27 35.32 85.04 6.06 3.11 12.9 5.02 17.93 9.61 13.27 12.12 6.72 33.56 6.89 51.53.32 33.95 31.45 63.1 65.27 66.08 26.65 2.35 53.63-9.69 71.99-28.73 17.57-18.23 14.33-48.61 8.53-72.15z"/>
    <linearGradient id="SVGID_2_" x1="-3372.65" x2="-3187.14" y1="-813.54" y2="-813.54" gradientTransform="matrix(1 0 0 -1 0 -2059.11)" gradientUnits="userSpaceOnUse">
      <stop offset="0" stop-color="#1ae51a"/>
      <stop offset="1" stop-color="#4cae50"/>
    </linearGradient>
    <path fill="url(#SVGID_2_)" d="M-3308.81-1310.95c-2.9 16.31 3.92 33.75-1.63 49.36-4.17 11.72-14.44 19.94-23.15 28.82-33.58 34.22-47.13 86.82-34.26 133.01 5.23 18.78 15.65 37.55 33.27 45.91 19.55 9.29 43.14 3.51 62.14-6.85 39.53-21.53 68.15-65.25 64.67-110.13-1.64-21.14-9.96-42.26-5.59-63.01 5.82-27.65 33.44-52.26 24.42-79.04-6.38-18.92-29.76-30.4-30.59-50.34-.37-8.75 3.92-16.92 6.51-25.29 6.55-21.14-2.33-49.61-24.13-53.44 9.44 1.66 3.55 38.56 1.06 45.01-4.59 11.88-13.98 20.9-23.27 29.17-18.42 16.38-44.74 30.31-49.45 56.82z"/>
    <path d="M-3240.83-1323.72c-36.61 133.67-106.27 244.86-167.57 369.15 17.11-57.82 4.02-123.69-33.89-170.58-30.03-37.13-73.15-61.51-105.27-96.84a220.54 220.54 0 01-39.29-60.98" class="st21"/>
    <linearGradient id="SVGID_3_" x1="-3227.1" x2="-3227.1" y1="-503" y2="-576.62" gradientTransform="matrix(1 0 0 -1 0 -2059.11)" gradientUnits="userSpaceOnUse">
      <stop offset="0" stop-color="#a4ffff"/>
      <stop offset="1" stop-color="#00cfff"/>
    </linearGradient>
    <path fill="url(#SVGID_3_)" d="M-3227.67-1555.76c-2.01-.43-4.15-.54-6.08.15-2.3.81-4.09 2.62-5.6 4.53-12.05 15.14-14.96 75.98 14.72 67.85 26.79-7.34 23.07-66.93-3.04-72.53z"/>
    <linearGradient id="SVGID_4_" x1="-3567.13" x2="-3567.13" y1="-441.95" y2="-509.76" gradientTransform="matrix(1 0 0 -1 0 -2059.11)" gradientUnits="userSpaceOnUse">
      <stop offset="0" stop-color="#a4ffff"/>
      <stop offset="1" stop-color="#00cfff"/>
    </linearGradient>
    <path fill="url(#SVGID_4_)" d="M-3571.55-1616.98c-2.05-.31-4.27-.3-6.07.74-2.04 1.18-3.17 3.45-4.09 5.62-6.25 14.76-14.61 72.07 20.15 59.47 24.89-9.01 15.76-61.97-9.99-65.83z"/>
    <linearGradient id="SVGID_5_" x1="-3400.46" x2="-3400.46" y1="-638.46" y2="-699.34" gradientTransform="matrix(1 0 0 -1 0 -2059.11)" gradientUnits="userSpaceOnUse">
      <stop offset="0" stop-color="#a4ffff"/>
      <stop offset="1" stop-color="#00cfff"/>
    </linearGradient>
    <path fill="url(#SVGID_5_)" d="M-3391.8-1420.35c1.56-.34 3.26-.53 4.69.18 1.97.97 2.83 3.28 3.4 5.4 3.91 14.43 2.97 65.92-24.74 52.91-23.42-11-2.87-54.21 16.65-58.49z"/>
    <path d="M-2973.8-1171.75c-15.37-58.75-7.9-121.16 6.31-180.21 7.25-30.15 16.16-62.36 5.24-91.38 10.71 53.19 40.86 100.76 53.02 153.64 8.12 35.34 7.97 72.01 12.53 107.99a415.38 415.38 0 0020.39 85.95c7.43 21.05 31.56 64.33-10.15 42.7-44.53-23.08-74.95-71.33-87.34-118.69z" class="st8"/>
    <path d="M-2960.48-1441.5c18.07 51.27 71.56 79.89 106.17 121.81 32.01 38.76 47.51 89.36 49.86 139.57 1.21 25.85-.97 52.29-10.67 76.28-9.7 23.99-27.58 45.39-51.4 55.49-45.56-51.54-65.42-122.07-71.21-190.62-5.78-68.55-5.55-135.93-22.75-202.53z" class="st18"/>
    <path d="M-2696.16-1321.52c-49.55 61.17-61.24 145.88-51.18 223.96 44.95-22.06 80.12-61.31 102.79-105.95s33.53-94.52 37.87-144.4c1.82-20.98 4.88-78.83-26.92-45.44-21.27 22.32-43.07 47.77-62.56 71.83z" class="st8"/>
    <path d="M-2643.82-1262.11c-29.38 55.79-80.7 99.47-100.9 159.2-1.09 3.23-2.01 7.07-.02 9.84 1.34 1.86 3.65 2.71 5.85 3.34 17.9 5.16 37.34 2.71 54.86-3.61 34.24-12.35 62.23-39.09 80.17-70.76 17.94-31.68 26.41-68.04 29.01-104.36 1.46-20.41 1.12-41.02-2.2-61.22-3.69-22.49-10.75-46.96-22.9-66.47-10.12-16.24-12.3-14.88-15.31 2.94-7.84 46.35-5.64 87.56-28.56 131.1z" class="st18"/>
    <path d="M-2865.66-1049.09c.25 13.91 13 25.49 26.78 27.44 13.77 1.95 27.71-4.1 38.32-13.1s18.46-20.74 26.21-32.3c7.75-11.56 15.7-23.25 26.44-32.09M-2822.14-1023.63c18.38 22.82 23.19 55.8 12.08 82.91" class="st21"/>
    <path d="M-2938.95-1548.24a36.87 36.87 0 008 34.4 36.85 36.85 0 0033.5 11.16c-4.24-9.97-2.96-21.28-2.6-32.11.28-8.34 1.76-54.36-11.8-54.59-6.99-.13-25.1 34.24-27.1 41.14z" class="st10"/>
    <path d="M-2888.98-1569.48c9.29 10.51 19.16 22.53 18.59 36.55-.44 10.7-7.73 20.82-17.74 24.61-2.73 1.03-5.73 1.63-8.56.93-5.43-1.33-8.76-7.04-9.58-12.57-.83-5.53.2-11.15.21-16.74.03-18.33-14.15-40.33-5.96-57.67 8.59 6.89 15.65 16.54 23.04 24.89z" class="st12"/>
    <path d="M-2797.8-1435.36c-1.77 8.94-2.26 18.88 2.72 26.51 8.24 12.63 27.84 12.52 40.48 4.29.8-.52 1.61-1.1 2.04-1.95.81-1.62-.05-3.55-.86-5.17-13.38-26.62-12.91-52.22-13.04-80.82-16.85 12.56-27.33 36.89-31.34 57.14z" class="st10"/>
    <path d="M-2738.59-1434.44c2.03 10.91-2.15 23.85-12.35 28.2-2.07.88-4.39 1.38-6.57.84-4.93-1.22-7.13-6.87-8.36-11.79-2.42-9.65-13.58-53.14-1.54-58.87 9.37-4.47 27.18 32.8 28.82 41.62zM-2617.7-1513.19c.58 9.16-3.28 19.23-11.55 23.23-8.26 3.99-20.35-1.29-20.79-10.46-.19-3.9 1.57-7.59 3.1-11.18 5.52-13 4.52-30.54 12.01-42.05 8.11 9.55 16.4 27.34 17.23 40.46z" class="st12"/>
    <path d="M-2639.58-1527.41c0 11.61-.42 24.38-8.21 33-3.12 3.45-7.72 6.04-12.3 5.2-4.57-.84-7.94-4.86-9.77-9.13-5.86-13.62.45-29.36 8.48-41.83a835.56 835.56 0 0117.07-25.7c9.09 6.16 4.74 28.16 4.73 38.46z" class="st10"/>
    <path d="M-3906.86-977.43c0-21.77-218.19-18.05-218.19 0 0 60.25 0 109.1 109.1 109.1 109.09 0 109.09-48.85 109.09-109.1z" class="st25"/>
    <linearGradient id="SVGID_6_" x1="-3398.81" x2="-3398.81" y1="58.99" y2="-65.07" gradientTransform="translate(0 -925.14)" gradientUnits="userSpaceOnUse">
      <stop offset="0" stop-color="#964d17"/>
      <stop offset="1" stop-color="#47301a"/>
    </linearGradient>
    <path fill="url(#SVGID_6_)" d="M-3289.72-975.25c0-21.77-218.19-18.05-218.19 0 0 60.25 0 109.1 109.1 109.1 109.09 0 109.09-48.85 109.09-109.1z"/>
    <path d="M-2884.74-966.1c0-16.09 161.2-13.34 161.2 0 0 44.51 0 80.6-80.6 80.6s-80.6-36.09-80.6-80.6z" class="st25"/>
    <path d="M-2262.64-1136.9c28.88 13.89 63.95 20.72 92.55 6.27-19.27-35.83-43.12-69.7-73.99-96.2-30.87-26.5-69.21-45.34-109.76-48.63-4.3-.35-8.83-.48-12.7 1.41s-6.77 6.48-5.35 10.55l.01.04c19.3 54.69 55.98 100.95 109.24 126.56zM-2133.66-1256.96c-28.43 35.79-41.58 83.33-35.6 128.64 47.46 2.9 89.34-31.28 118.07-69.16 9.38-12.37 17.99-25.39 24.78-39.35 12.26-25.2 31.41-77.08-12.58-79.44-33.45-1.81-75.67 35.39-94.67 59.31zM-2153.42-1358.86a267.4 267.4 0 00-20.74 99.73c30.91-7.54 57.78-30.09 70.56-59.22 7.59-17.29 17.7-65.17 1.12-80.81-20.07-18.94-43.38 22.29-50.94 40.3zM-2181.23-1375.79c33.31-20.48 46.27-107.13-6.84-112.44-63.56-6.34 14.92 107.47 6.84 112.44zM-2264.15-1307.89c6.59 12 18.19 20.27 29.41 28.11 16.42 11.48 33.88 23.36 53.86 24.97 1.45.12 3.03.14 4.22-.7 1.83-1.31 1.84-3.99 1.59-6.23-3.46-31.17-20.78-59.1-40.62-83.39-10.09-12.35-40.27-45.48-57.3-27.65-10.51 11 3.03 54.31 8.84 64.89z" class="st5"/>
    <path d="M-2179.66-1399.71a5717.44 5717.44 0 017.48 451.67" class="st4"/>
    <path d="M-2254.76-982.56c0-16.09 161.2-13.34 161.2 0 0 44.51 0 80.6-80.6 80.6s-80.6-36.08-80.6-80.6z" class="st25"/>
    <path d="M-2182.92-1386.51a143.13 143.13 0 00-80.21-38.56c-.02 9.62 7.82 17.3 15.61 22.94 22.11 16 48.88 25.5 76.13 27.01 25.07-16.96 51.3-35.9 71.7-58.26-26.57 5.48-65.09 26.7-83.23 46.87zM-2247.72-1276.53c-1.88-.58-4.11-1.07-5.65.15-1.8 1.42-1.49 4.19-.92 6.41 4.25 16.53 28.42 60.24 49.44 44.33 30.17-22.83-28.56-46.43-42.87-50.89zM-2100.97-1108.48c-17.77-6.33-38.97-1.66-52.43 11.56-3.34 3.28-6.38 8.15-4.36 12.36 2.02 4.21 11.81 5.07 16.45 4.51 17.72-2.15 34.03-11.73 40.34-28.43" class="st5"/>
    <path d="M-1630.99-979.25c0-16.09 161.2-13.34 161.2 0 0 44.51 0 80.6-80.6 80.6s-80.6-36.09-80.6-80.6z" class="st27"/>
    <path d="M-1638.53-999.01h177v35.68h-177z" class="st25"/>
    <path d="M-2337.73-1507.75c.75 3.43 2.39 7.48 5.87 7.87 2.24.25 4.29-1.21 5.9-2.78 7.68-7.5 10.43-18.68 11.54-29.35.92-8.88 4.44-52.78-14.88-44.16-15.28 6.83-11.09 56.21-8.43 68.42zM-2056.42-1448.58c1.4 4.24 3.32 8.49 6.71 11.41 3.38 2.91 8.54 4.15 12.41 1.92 2.44-1.41 4.02-3.92 5.23-6.47 5.32-11.23 5.01-24.51 1.43-36.41-4.08-13.58-10.52-34.15-22.88-21.03-10.14 10.78-7 38.17-2.9 50.58zM-2167.68-1619.83c-11.25 8.61-15.2 32.46-11.78 46.2 2.08 8.37 10.11 16.96 18.14 13.83 7.7-3 8.28-13.63 6.79-21.76a136.33 136.33 0 00-13.15-38.27" class="st28"/>
    <path fill="#f60" d="M-1932.32-2220.05h173.05V-2047h-173.05z"/>
    <path d="M-1742.66-2220.05h173.05V-2047h-173.05z" class="st30"/>
    <path d="M-2906.33-2220.05h173.05V-2047h-173.05z" class="st0"/>
    <path fill="#58bc8a" d="M-1555.5-2220.05h173.05V-2047h-173.05z"/>
    <path fill="#154930" d="M-2121.98-2220.05h173.05V-2047h-173.05z"/>
    <path fill="#fffad2" d="M-2314.85-2220.05h173.05V-2047h-173.05z"/>
    <path fill="#c7cad9" d="M-1932.32-2432.26h173.05v173.05h-173.05z"/>
    <path fill="#eff0f3" d="M-1742.66-2432.26h173.05v173.05h-173.05z"/>
    <path fill="#63cea9" d="M-2504.51-2432.26h173.05v173.05h-173.05z"/>
    <path d="M-2703.81-2432.26h173.05v173.05h-173.05z" class="st37"/>
    <path fill="#fafafa" d="M-1555.5-2432.26h173.05v173.05h-173.05z"/>
    <path d="M-2121.98-2432.26h173.05v173.05h-173.05z" class="st39"/>
    <path d="M-2314.85-2432.26h173.05v173.05h-173.05z" class="st40"/>
    <path d="M890.72-2327.35h173.05v173.05H890.72z" class="st30"/>
    <path d="M276.42-2327.35h173.05v173.05H276.42z" class="st37"/>
    <path fill="#fff" stroke="#000" stroke-miterlimit="10" d="M1095.48-2327.35h173.05v173.05h-173.05z"/>
    <path d="M685.95-2327.35H859v173.05H685.95z" class="st39"/>
    <path d="M481.19-2327.35h173.05v173.05H481.19z" class="st40"/>
    <path fill="#fffdf0" stroke="#fff" stroke-miterlimit="10" stroke-width="12" d="M-2703.81-2220.05h173.05V-2047h-173.05z"/>
    <path fill="#ccffe8" stroke="#fff" stroke-miterlimit="10" stroke-width="12" d="M-2504.51-2220.05h173.05V-2047h-173.05z"/>

    <path id="Gota_izquierda" d="M-1710.08-1476.47c-.94 6.16-1.08 12.62 1.11 18.46 2.19 5.83 7.08 10.93 13.22 12.03 10.95 1.95 19.92-8.7 24.46-18.85 6.15-13.76 8.96-30.01 2.91-43.82-3.5-8-8.56-17.64-14.51-23.5-13.34 14.59-24.18 35.93-27.19 55.68z" class="st44"/>
    <path id="Gota_Centro" d="M-1506.85-1618.28a81.53 81.53 0 00-18.89 29.33c-2.13 5.73-3.62 11.94-2.46 17.94s5.53 11.71 11.53 12.86c7.71 1.49 15.14-5.03 17.51-12.52s1-15.59-.4-23.32l-4.58-25.4" class="st44"/>
    <path id="Gota_Derecha" d="M-1375.02-1465.92c-3.29 10.03-6.6 20.75-3.91 30.95 2.69 10.2 14.06 18.81 23.73 14.58 5.93-2.59 9.34-9.17 9.9-15.61.56-6.44-1.23-12.85-3.17-19.02-3.05-9.71-7.32-33.07-17.36-36.26-4.2 7.77-6.4 16.85-9.19 25.36z" class="st44"/>
    <path d="M-475.32-509.47h-474.35c-31.08 0-56.29-31.09-56.29-69.42v-856.08c0-38.34 25.2-69.42 56.29-69.42h474.36c31.08 0 56.29 31.09 56.29 69.42v856.08c-.01 38.34-25.2 69.42-56.3 69.42z" class="st37"/>
    <path fill="none" stroke="#346642" stroke-miterlimit="10" stroke-width="8.58" d="M-924-2638.31c-46.89 80.54-57.26 276.48-34.94 416.2"/>
    <path d="M-968.8-2420.72c-7.18-14.11-23.97-21.21-39.8-21.34-15.83-.13-31.08 5.47-45.93 10.98a77.05 77.05 0 0027.37 36.03c4.83 3.45 10.3 6.41 16.23 6.71 3.86.2 7.7-.75 11.34-2.05a61.21 61.21 0 0033.36-28.93" class="st5"/>
    <path d="M-860.07-2386.98c-8.57 4.11-11 15.02-17.08 22.33-9.71 11.68-26.99 12.62-42.18 12.63-33.79.02-70.85-10.35-22.55-32.95a103.64 103.64 0 0141.93-9.81c7.39-.14 35.79 9.76 39.88 7.8z" class="st6"/>
    <path d="M-1045.85-2259.68c0-17.25 172.89-14.3 172.89 0 0 47.74 0 86.45-86.45 86.45s-86.44-38.71-86.44-86.45z" class="st27"/>
    <path d="M-1053.93-2280.87h189.84v38.27h-189.84z" class="st25"/>
    <path d="M-1067.85-2577.31a209.42 209.42 0 00-92.97 88.57 259.04 259.04 0 00127.46 7.53c38.26-7.41 102.16-38.35 85.89-88.54-15.8-48.73-89-22.61-120.38-7.56zM-848.13-2567.25c-4.12-6.43-8.37-13-14.46-17.62-6.09-4.62-14.49-6.96-21.5-3.94-9.96 4.29-13.07 16.91-13.01 27.75.16 30.11 15.63 59.74 40.23 77.09 15.23 10.75 38.19 25.03 56.47 27.29 7.52-33.69-30.09-83.04-47.73-110.57z" class="st5"/>
    <path d="M-860.44-2570.46a334.48 334.48 0 0071.67-24.65c6.92-3.3 14.58-7.99 15.53-15.6 1.1-8.86-7.43-15.63-15.03-20.32-15.9-9.8-32.37-19.2-50.43-23.99s-38.1-4.58-54.57 4.24c-18.91 10.12-52.14 44.98-39.29 67.93 12.25 21.87 52.67 16.69 72.12 12.39z" class="st5"/>
    <path d="M-952.36-2726.05c-6.34 13.03-6.68 28.06-6.91 42.55-.3 19.46-.55 39.3 5.19 57.89.8 2.6 1.92 5.4 4.34 6.64 3.11 1.6 6.84-.07 9.9-1.75 28.28-15.57 55.86-35.79 69.51-65.04 9.43-20.22 14.08-71.4-13.75-81.52-21.7-7.89-59.65 23.47-68.28 41.23zM-903.05-2456.09c33.27-25.53 37.53-119.41-19.73-119.2-68.5.26 27.81 113 19.73 119.2z" class="st6"/>
    <path d="M-987.01-2673.19a167.47 167.47 0 00-105.35-29.55c-7.57 30.81 11.33 61.98 33.59 84.58 18.4 18.68 40.3 34.79 65.55 41.86 23.1 6.47 66.79 8.75 65.6-21.53-1.06-26.97-39.36-61.38-59.39-75.36z" class="st6"/>
    <path d="M-1130.67-2792.96c-1.01 6.61-1.16 13.54 1.19 19.8s7.6 11.73 14.18 12.9c11.74 2.09 21.37-9.33 26.23-20.22 6.59-14.76 9.6-32.18 3.12-46.99-3.76-8.58-9.18-18.92-15.57-25.2-14.3 15.64-25.92 38.53-29.15 59.71zM-912.71-2945.05a87.4 87.4 0 00-20.26 31.46c-2.28 6.15-3.88 12.81-2.63 19.25 1.25 6.44 5.93 12.56 12.37 13.8 8.27 1.6 16.24-5.4 18.78-13.43 2.54-8.03 1.07-16.72-.42-25.01l-4.91-27.24M-771.32-2781.65c-3.53 10.75-7.08 22.25-4.19 33.19 2.89 10.94 15.08 20.18 25.45 15.64 6.36-2.78 10.02-9.83 10.62-16.75.61-6.91-1.32-13.78-3.4-20.4-3.27-10.42-7.85-35.47-18.62-38.89-4.51 8.34-6.87 18.09-9.86 27.21z" class="st44"/>
    <path d="M-667.68-1022.4c-47.47 81.54-46.48 289.82-42.74 360.86" class="st46"/>
    <path d="M-713.04-802.12c-7.27-14.28-24.27-21.47-40.29-21.6s-31.46 5.54-46.49 11.12a77.94 77.94 0 0027.71 36.48c4.89 3.49 10.43 6.49 16.43 6.79 3.91.2 7.8-.76 11.48-2.08a61.9 61.9 0 0033.77-29.29M-602.95-767.96c-8.68 4.16-11.14 15.21-17.29 22.61-9.83 11.82-27.32 12.78-42.7 12.79-34.21.02-71.73-10.48-22.83-33.36a104.8 104.8 0 0142.45-9.93c7.47-.15 36.22 9.87 40.37 7.89z" class="st40"/>
    <path d="M-627.28-509.47h-151.69l-20.25-151.07h192.19z" class="st39"/>
    <path d="M-813.31-960.65a212 212 0 00-94.12 89.66 262.3 262.3 0 00129.04 7.62c38.73-7.5 103.42-38.83 86.95-89.63-16-49.32-90.1-22.88-121.87-7.65zM-590.87-950.46c-4.17-6.51-8.47-13.16-14.64-17.84s-14.67-7.05-21.77-3.99c-10.08 4.34-13.23 17.12-13.17 28.09.16 30.48 15.82 60.48 40.73 78.04 15.42 10.88 38.66 25.34 57.17 27.63 7.62-34.1-30.47-84.06-48.32-111.93z" class="st40"/>
    <path d="M-603.34-953.71a339.09 339.09 0 0072.56-24.95c7.01-3.34 14.76-8.09 15.72-15.79 1.11-8.97-7.52-15.82-15.22-20.57-16.1-9.92-32.77-19.44-51.05-24.29-18.28-4.85-38.57-4.64-55.24 4.29-19.14 10.25-52.78 45.54-39.78 68.77 12.4 22.14 53.33 16.9 73.01 12.54z" class="st40"/>
    <path d="M-696.39-1111.22c-6.42 13.19-6.76 28.41-7 43.08-.3 19.7-.56 39.79 5.25 58.61.81 2.63 1.94 5.47 4.39 6.72 3.15 1.62 6.92-.07 10.02-1.77 28.63-15.76 56.55-36.23 70.37-65.84 9.55-20.47 14.25-72.28-13.92-82.53-21.96-8-60.38 23.75-69.11 41.73zM-646.46-837.92c33.68-25.85 37.99-120.89-19.97-120.67-69.35.26 28.14 114.39 19.97 120.67z" class="st40"/>
    <path d="M-731.47-1057.71a169.61 169.61 0 00-106.65-29.92c-7.66 31.19 11.47 62.75 34.01 85.63 18.63 18.91 40.8 35.22 66.36 42.38 23.39 6.55 67.62 8.86 66.41-21.8-1.08-27.3-39.85-62.14-60.13-76.29z" class="st40"/>
    <path d="M-910.02-1348.11v20.24" class="st47"/>
    <path fill="none" stroke="#fff" stroke-dasharray="39.3161,39.3161" stroke-miterlimit="10" stroke-width="4.05" d="M-910.02-1288.55v452.13"/>
    <path d="M-910.02-816.76v20.25M-880.2-1421.5v20.25" class="st47"/>
    <path fill="none" stroke="#fff" stroke-dasharray="39.2325,39.2325" stroke-miterlimit="10" stroke-width="4.05" d="M-880.2-1362.02v451.18"/>
    <path d="M-880.2-891.23v20.25M-839.84-1365.59v20.25" class="st47"/>
    <path fill="none" stroke="#fff" stroke-dasharray="39.5013,39.5013" stroke-miterlimit="10" stroke-width="4.05" d="M-839.84-1305.84v533.27"/>
    <path d="M-839.84-752.82v20.25M-798.12-1438.97v20.24" class="st47"/>
    <path fill="none" stroke="#fff" stroke-dasharray="39.8029,39.8029" stroke-miterlimit="10" stroke-width="4.05" d="M-798.12-1378.92v378.13"/>
    <path d="M-798.12-980.9v20.25M-755.12-1421.5v20.25" class="st47"/>
    <path fill="none" stroke="#fff" stroke-dasharray="41.4646,41.4646" stroke-miterlimit="10" stroke-width="4.05" d="M-755.12-1359.79v476.85"/>
    <path d="M-755.12-862.21v20.25M-706.1-1386.55v20.24" class="st47"/>
    <path fill="none" stroke="#fff" stroke-dasharray="39.5376,39.5376" stroke-miterlimit="10" stroke-width="4.05" d="M-706.1-1326.77v533.75"/>
    <path d="M-706.1-773.24V-753M-673.91-1438.97v20.24" class="st47"/>
    <path fill="none" stroke="#fff" stroke-dasharray="38.8226,38.8226" stroke-miterlimit="10" stroke-width="4.05" d="M-673.91-1379.9v291.16"/>
    <path d="M-673.91-1069.32v20.25M-643.03-1365.59v20.25" class="st47"/>
    <path fill="none" stroke="#fff" stroke-dasharray="35.272,35.272" stroke-miterlimit="10" stroke-width="4.05" d="M-643.03-1310.07v194"/>
    <path d="M-643.03-1098.44v20.25" class="st47"/>
    <g>
      <path d="M-602.95-1421.5v20.25" class="st47"/>
      <path fill="none" stroke="#fff" stroke-dasharray="42.095,42.095" stroke-miterlimit="10" stroke-width="4.05" d="M-602.95-1359.16v315.72"/>
      <path d="M-602.95-1022.4v20.25" class="st47"/>
    </g>
    <g>
      <path d="M-559.84-1386.55v20.24" class="st47"/>
      <path fill="none" stroke="#fff" stroke-dasharray="44.6401,44.6401" stroke-miterlimit="10" stroke-width="4.05" d="M-559.84-1321.66v245.52"/>
      <path d="M-559.84-1053.82v20.25" class="st47"/>
    </g>
    <g>
      <path d="M-514.96-1365.59v20.25" class="st47"/>
      <path fill="none" stroke="#fff" stroke-dasharray="40.6602,40.6602" stroke-miterlimit="10" stroke-width="4.05" d="M-514.96-1304.67v467.59"/>
      <path d="M-514.96-816.76v20.25" class="st47"/>
    </g>

    <circle cx="-165.51" cy="-1270.32" r="98.6" class="st3"/>
    <circle cx="-146.06" cy="-1278.94" r="104.63" class="st59"/>
    <circle cx="-182.72" cy="-1278.94" r="104.63" class="st59"/>
    <circle cx="-182.72" cy="-1253.34" r="104.63" class="st59"/>

    <circle cx="228.03" cy="-1271.62" r="98.6" class="st3"/>
    <circle cx="247.48" cy="-1280.23" r="104.63" class="st59"/>
    <circle cx="210.82" cy="-1280.23" r="104.63" class="st59"/>
    <circle cx="210.82" cy="-1254.64" r="104.63" class="st59"/>

    <path d="M-261.04-2249.24a361.56 361.56 0 00-87.76 171.29c-1.18 5.76-2.16 12.03.46 17.29 3.02 6.04 9.87 8.98 16.24 11.21a277.46 277.46 0 00147.52 9.44c9.04-1.9 18.93-4.94 23.56-12.94 2.71-4.69 3.11-10.34 3.09-15.75-.21-53.26-33.86-99.7-64.45-143.31-30.58-43.6-60.79-93.84-52.85-146.51l29.28-.34c3.06-.04 6.38.01 8.81 1.86 2.87 2.19 3.59 6.16 3.88 9.76 2.36 28.94-8.16 76.7-27.78 98z" class="st60"/>
    <path d="M-415.79-2396.86c-2.72-.72-5.88-1.31-8.14.37-2.37 1.77-2.6 5.17-2.61 8.13-.13 40.52 2.65 85.87 32.41 113.36 7.32 6.76 15.92 12.01 24.86 16.41 25.77 12.67 61.57 21.94 90.39 15.9 37.21-7.8 19.52-30.65 2.24-55.61-32.99-47.66-82.96-83.75-139.15-98.56z" class="st60"/>
    <path d="M-90.86-2396.86c2.72-.72 5.88-1.31 8.14.37 2.37 1.77 2.6 5.17 2.61 8.13.13 40.52-2.65 85.87-32.41 113.36-7.32 6.76-15.92 12.01-24.86 16.41-25.77 12.67-61.57 21.94-90.39 15.9-37.21-7.8-19.52-30.65-2.24-55.61 32.99-47.66 82.96-83.75 139.15-98.56z" class="st60"/>
    <g>
      <circle cx="-925.83" cy="-1644.28" r="64.53" class="st40"/>
      <circle cx="-913.1" cy="-1649.92" r="68.48" class="st61"/>
      <circle cx="-937.09" cy="-1649.92" r="68.48" class="st61"/>
      <circle cx="-937.09" cy="-1633.17" r="68.48" class="st61"/>
    </g>
    <path d="M1091.49-394.38H541.96a27.47 27.47 0 01-27.47-27.47v-1055.08a27.47 27.47 0 0127.47-27.47h549.53a27.47 27.47 0 0127.47 27.47v1055.08a27.47 27.47 0 01-27.47 27.47z" class="st3"/>
    <path d="M70.38-781.27H32.02a20.84 20.84 0 01-20.84-20.84v-113.3a20.84 20.84 0 0120.84-20.84h38.36a20.84 20.84 0 0120.84 20.84v113.3c0 11.5-9.33 20.84-20.84 20.84z" class="st2"/>
    <path fill="none" d="M-296.61-916.77h679.99v53.1h-679.99z"/>

    <path fill="none" d="M-300.26-858.53h679.99v53.1h-679.99z"/>

    <circle cx="51.2" cy="-806.68" r="5.9" class="st40"/>
    <circle cx="332.78" cy="-806.68" r="5.9" class="st39"/>
    <circle cx="-238.88" cy="-806.68" r="5.9" class="st39"/>
    <g>
      <path d="M-312.21-883.62l-20.58 20.58M-312.21-843.43l-20.58-20.58" class="st61"/>
    </g>
    <g>
      <path d="M406.94-843.43l20.58-20.58M406.94-883.62l20.58 20.58" class="st61"/>
    </g>
    <path d="M-88.29-450.46h-221.79a20.64 20.64 0 01-20.64-20.64v-37.74c0-11.4 9.24-20.64 20.64-20.64h221.79c11.4 0 20.64 9.24 20.64 20.64v37.74c0 11.4-9.24 20.64-20.64 20.64z" class="st30"/>

    <path fill="none" stroke="#3e5c61" stroke-miterlimit="10" stroke-width="2.34" d="M406.68-450.46h-426.4a20.64 20.64 0 01-20.64-20.64v-37.74c0-11.4 9.24-20.64 20.64-20.64h426.4c11.4 0 20.64 9.24 20.64 20.64v37.74c0 11.4-9.24 20.64-20.64 20.64z"/>
    <path d="M-763.09-394.38h-221.22a20.64 20.64 0 01-20.64-20.64v-37.74c0-11.4 9.24-20.64 20.64-20.64h221.22c11.4 0 20.64 9.24 20.64 20.64v37.74c0 11.4-9.24 20.64-20.64 20.64z" class="st40"/>
    <path d="M-589.36-394.38h-113.76a20.64 20.64 0 01-20.64-20.64v-37.74c0-11.4 9.24-20.64 20.64-20.64h113.76c11.4 0 20.64 9.24 20.64 20.64v37.74c0 11.4-9.24 20.64-20.64 20.64z" class="st3"/>
    <path d="M-439.45-394.38h-83.99a20.64 20.64 0 01-20.64-20.64v-37.74c0-11.4 9.24-20.64 20.64-20.64h83.99c11.4 0 20.64 9.24 20.64 20.64v37.74c0 11.4-9.25 20.64-20.64 20.64z" class="st40"/>

    <path d="M-264.11-608.77v-38.36a20.84 20.84 0 0120.84-20.84h221.38a20.84 20.84 0 0120.84 20.84v38.36a20.84 20.84 0 01-20.84 20.84h-221.38a20.84 20.84 0 01-20.84-20.84z" class="st2"/>

    <path d="M96.86-608.77v-38.36a20.84 20.84 0 0120.84-20.84h221.38a20.84 20.84 0 0120.84 20.84v38.36a20.84 20.84 0 01-20.84 20.84H117.7a20.84 20.84 0 01-20.84-20.84z" class="st2"/>
    <path fill="none" stroke="#fff" stroke-miterlimit="10" stroke-width="2" d="M-466.84-436.41c-3.34-8.54-11.02-18.21-14.61-18.21-4.19 0-11.98 10.33-14.99 19.05a16.22 16.22 0 1029.6-.84z"/>
    <path d="M1050.65-1666.55a11.38 11.38 0 00-11.61 11.56 11.38 11.38 0 0011.46 11.51 11.37 11.37 0 0011.61-11.56c0-6.46-5.02-11.49-11.46-11.51zm-.14 20.55a9.07 9.07 0 01-8.94-9.14 9.05 9.05 0 018.98-8.89 9.05 9.05 0 019.04 9.03 9.07 9.07 0 01-9.08 9z" class="st40"/>
    <path d="M1080.2-1657.65c-.11-2.31-1.61-3.7-3.96-3.76a42.03 42.03 0 00-3.55.01c-.88.06-1.17-.38-1.57-1.09-1.16-2-1.05-3.61 1-4.92.43-.28.78-.71 1.12-1.11 1.67-1.89 1.68-3.96-.03-5.83a54 54 0 00-3.21-3.21c-1.97-1.83-4.11-1.78-6.11.08-.58.54-1.24 1.03-1.66 1.68-1.29 2.01-2.64.6-4.05.26-1.54-.38-1.22-1.48-1.18-2.47.11-2.57.2-5.11-2.46-6.65h-7.9c-2.65 1.54-2.57 4.07-2.46 6.64.04.98.37 2.11-1.16 2.47-1.4.33-2.48 1.54-4.08-.18-4.16-4.47-5.23-4.37-9.53-.06-.6.6-1.23 1.19-1.76 1.85-1.31 1.65-1.31 3.38 0 5.03.49.62 1.02 1.22 1.63 1.7 1.5 1.18 2.03 2.33.97 4.26-.64 1.18-1.16 1.72-2.44 1.54-.52-.07-1.06.05-1.57-.02a5.01 5.01 0 00-5.27 2.46v7.9a5.01 5.01 0 005.27 2.46c.52-.07 1.06.05 1.58-.02 1.29-.18 1.83.34 2.44 1.55.91 1.8.75 2.98-.84 4.12-.58.41-1.06.98-1.54 1.53-1.6 1.85-1.61 3.84.04 5.67a50.41 50.41 0 003.35 3.35c1.95 1.79 3.97 1.76 5.95-.07.82-.76 1.57-1.59 2.39-2.36.35-.33.58-.72 1.31-.53 2.87.75 3.29 1.21 3.29 4.22 0 .66-.02 1.32.01 1.98.1 2.2 1.52 3.64 3.74 3.8.66.05 1.32-.01 1.97.02 5.89.26 7.48-.55 7.06-6.99-.08-1.22.41-1.65 1.48-2.29 2.15-1.27 3.22-.23 4.57 1.18 3.05 3.2 4.82 3.16 7.91.07 4.87-4.87 4.9-5.46.11-10.29-.83-.84-.75-1.42-.47-2.51.57-2.19 1.8-2.78 3.83-2.44.64.11 1.32.04 1.97.01 2.21-.09 3.72-1.49 3.83-3.69.07-1.79.06-3.57-.02-5.35zm-7.79 6.46c-2.03-.03-3.31.4-3.63 2.54-.05.32-.21.62-.34.92-1.47 3.65-1.47 3.65 1.39 6.52.28.28.53.59.84.83 1.49 1.17 1.42 2.2.04 3.52-4.45 4.23-3.23 4.21-7.39-.01-1.4-1.42-2.6-2.13-4.35-.77-.25.2-.59.29-.89.41-3.64 1.52-3.64 1.52-3.64 5.58 0 .39-.04.79.01 1.18.23 1.9-.6 2.56-2.49 2.52-6.08-.12-5.31.6-5.22-5.25.03-2.03-.41-3.31-2.55-3.62-.32-.05-.62-.21-.92-.34-3.64-1.47-3.64-1.47-6.51 1.4-.28.28-.59.53-.83.84-1.17 1.5-2.2 1.41-3.52.03-4.24-4.46-4.22-3.2.01-7.38 1.41-1.4 2.15-2.58.77-4.35-.27-.35-.39-.83-.56-1.25-1.33-3.28-1.33-3.28-4.83-3.28-4.49 0-4.31.43-4.28-4.24 0-.33.03-.66 0-.99-.19-1.83.5-2.72 2.45-2.55 1.37.12 2.76-.01 4.14.03 1.01.03 1.6-.42 1.87-1.37.2-.69.44-1.38.71-2.04 1.48-3.64 1.49-3.64-1.38-6.52l-.7-.7c-1.82-1.84-1.84-1.97-.02-3.76 4.15-4.08 3.1-4.13 7.07-.03 1.5 1.55 2.6 1.59 4.71.98 3.95-1.14 4.8-3.4 4.38-7.05-.29-2.48.12-2.7 2.61-2.69 5.81.02 5.14-.57 5.04 5.01-.04 2.16.37 3.59 2.73 3.88.25.03.49.18.73.28 3.64 1.5 3.64 1.5 6.38-1.25.33-.33.69-.62.97-.98 1.17-1.49 2.2-1.42 3.52-.03 4.2 4.43 4.25 3.19-.01 7.38-1.42 1.4-2.14 2.6-.77 4.35.2.25.29.59.41.89 1.52 3.64 1.52 3.64 5.57 3.64.39 0 .79.04 1.18-.01 1.89-.23 2.56.59 2.53 2.48-.1 6.11.62 5.33-5.23 5.25z" class="st40"/>
    <g>
      <circle cx="-54.96" cy="819.36" r="145.05" class="st40"/>
      <circle cx="-26.35" cy="806.69" r="153.93" class="st64"/>
      <circle cx="-80.28" cy="806.69" r="153.93" class="st64"/>
      <circle cx="-80.28" cy="844.34" r="153.93" class="st64"/>
    </g>
  </g>

  <circle id="circulo_centro" cx="267.6" cy="262.99" r="148.55" class="st2"/>
  <circle id="aro_1" cx="296.91" cy="250.01" r="157.64" class="st75"/>
  <circle id="aro_2" cx="241.67" cy="250.01" r="157.64" class="st75"/>
  <circle id="aro_3" cx="241.67" cy="288.58" r="157.64" class="st75"/>
</svg>
