<svg xmlns="http://www.w3.org/2000/svg" viewBox="0 0 707.5 1055.5">
  <style>
    .st1{fill:#3e5c61}.st10,.st11,.st12,.st13,.st3,.st4,.st5,.st6,.st7,.st8,.st9{fill:none;stroke:#fff;stroke-width:4;stroke-miterlimit:10}.st10,.st11,.st12,.st13,.st4,.st5,.st6,.st7,.st8,.st9{stroke-dasharray:39.3161,39.3161}.st10,.st11,.st12,.st13,.st5,.st6,.st7,.st8,.st9{stroke-dasharray:38.8226,38.8226}.st10,.st11,.st12,.st13,.st6,.st7,.st8,.st9{stroke-dasharray:39.2325,39.2325}.st10,.st11,.st12,.st13,.st7,.st8,.st9{stroke-dasharray:39.5013,39.5013}.st10,.st11,.st12,.st13,.st8,.st9{stroke-dasharray:39.8029,39.8029}.st10,.st11,.st12,.st13,.st9{stroke-dasharray:41.4646,41.4646}.st10,.st11,.st12,.st13{stroke-dasharray:39.5376,39.5376}.st11,.st12,.st13{stroke-dasharray:42.095,42.095}.st12,.st13{stroke-dasharray:44.6401,44.6401}.st13{stroke-dasharray:40.6602,40.6602}
  </style>
  <g class="trunk">
    <path d="M370.45 471.77c-39.03 160.04-38.73 303.23-35 374.27" fill="none" stroke="#3e5c61" stroke-width="6.0742" stroke-miterlimit="10"/>
    <path class="st1" d="M332.84 699.47c-7.27-14.28-24.27-21.47-40.29-21.6-16.03-.13-31.46 5.54-46.49 11.12 5.3 14.57 15.1 27.46 27.71 36.48 4.89 3.49 10.43 6.49 16.43 6.79 3.91.2 7.8-.76 11.48-2.08 14.38-5.1 26.69-15.78 33.77-29.29M442.93 733.62c-8.68 4.16-11.14 15.21-17.29 22.61-9.83 11.82-27.32 12.78-42.7 12.79-34.21.02-71.73-10.48-22.83-33.36 13.22-6.19 27.83-9.69 42.45-9.93 7.47-.14 36.22 9.88 40.37 7.89z"/>
  </g>
  <path fill="#85a1ad" d="M418.6 992.11H266.91l-20.25-151.06h192.19z" id="pot"/>
  <g class="bottom-leaves">
    <path class="st1" d="M232.57 541.05c-39.73 19.04-73.17 50.91-94.12 89.66 41.48 13.25 86.29 15.9 129.04 7.62 38.73-7.5 103.42-38.83 86.95-89.63-16-49.32-90.1-22.87-121.87-7.65zM455.01 551.25c-4.17-6.51-8.47-13.16-14.64-17.84s-14.67-7.05-21.77-3.99c-10.08 4.34-13.23 17.12-13.17 28.09.16 30.48 15.82 60.48 40.73 78.04 15.42 10.88 38.66 25.34 57.17 27.63 7.62-34.1-30.47-84.06-48.32-111.93z"/>
    <path class="st1" d="M442.54 548c25.03-5.54 49.42-13.92 72.56-24.95 7.01-3.34 14.76-8.09 15.72-15.79 1.11-8.97-7.52-15.82-15.22-20.57-16.1-9.92-32.77-19.44-51.05-24.29s-38.57-4.64-55.24 4.29c-19.14 10.25-52.78 45.54-39.78 68.77 12.4 22.13 53.33 16.89 73.01 12.54z"/>
  </g>
  <g class="top-leaves">
    <path class="st1" d="M349.49 390.4c-6.42 13.19-6.76 28.41-7 43.08-.3 19.7-.56 39.79 5.25 58.61.81 2.63 1.94 5.47 4.39 6.72 3.15 1.62 6.92-.07 10.02-1.77 28.63-15.76 56.55-36.23 70.37-65.84 9.55-20.47 14.25-72.28-13.92-82.53-21.96-8-60.38 23.75-69.11 41.73zM399.42 663.7c33.68-25.85 37.99-120.89-19.97-120.67-69.36.26 28.14 114.39 19.97 120.67z"/>
    <path class="st1" d="M314.41 443.91c-30.86-21.53-69.09-32.26-106.65-29.92-7.66 31.19 11.47 62.75 34.01 85.63 18.63 18.91 40.8 35.22 66.36 42.38 23.39 6.55 67.62 8.86 66.41-21.8-1.08-27.3-39.86-62.13-60.13-76.29z"/>
  </g>
  <g id="drops-1">
    <path class="st3 drop-1" d="M137.88 153.34v20.24"/>
    <path class="st4 drop-1" d="M137.88 212.9v452.13"/>
    <path class="st3 drop-1" d="M137.88 684.69v20.25"/>
    <path class="st5 drop-1" d="M404.87 135.86v31.39M404.87 221.92v300.73M404.87 549.99v31.38"/>
    <path class="st3 drop-1" d="M167.7 79.95v20.25"/>
    <path class="st6 drop-1" d="M167.7 139.43v451.18"/>
    <path class="st3 drop-1" d="M167.7 610.22v20.25M208.05 135.86v20.25"/>
    <path class="st7 drop-1" d="M208.05 195.61v533.27"/>
    <path class="st3 drop-1" d="M208.05 748.63v20.25"/>
    <g>
      <path class="st3 drop-1" d="M249.77 62.48v20.24"/>
      <path class="st8 drop-1" d="M249.77 122.53v378.13"/>
      <path class="st3 drop-1" d="M249.77 520.55v20.25"/>
    </g>
    <g>
      <path class="st3 drop-1" d="M292.78 79.95v20.25"/>
      <path class="st9 drop-1" d="M292.78 141.66v476.85"/>
      <path class="st3 drop-1" d="M292.78 639.24v20.25"/>
    </g>
    <g>
      <path class="st3 drop-1" d="M341.8 114.9v20.24"/>
      <path class="st10 drop-1" d="M341.8 174.68v533.75"/>
      <path class="st3 drop-1" d="M341.8 728.21v20.24"/>
    </g>
    <g>
      <path class="st3 drop-1" d="M373.99 62.48v20.24"/>
      <path class="st5 drop-1" d="M373.99 121.55v291.16"/>
      <path class="st3 drop-1" d="M373.99 432.13v20.25"/>
    </g>
    <g>
      <path class="st3 drop-1" d="M444.95 79.95v20.25"/>
      <path class="st11 drop-1" d="M444.95 142.29v315.72"/>
      <path class="st3 drop-1" d="M444.95 479.05v20.25"/>
    </g>
    <g>
      <path class="st3 drop-1" d="M488.05 114.9v20.24"/>
      <path class="st12 drop-1" d="M488.05 179.79v245.52"/>
      <path class="st3 drop-1" d="M488.05 447.63v20.25"/>
    </g>
    <g>
      <path class="st3 drop-1" d="M532.94 135.86v20.25"/>
      <path class="st13 drop-1" d="M532.94 196.78v467.59"/>
      <path class="st3 drop-1" d="M532.94 684.69v20.25"/>
    </g>
  </g>
  <g id="drops-2">
    <path class="st3 drop-2" d="M137.83 153.34v20.24"/>
    <path class="st4 drop-2" d="M137.83 212.9v452.13"/>
    <path class="st3 drop-2" d="M137.83 684.69v20.25"/>
    <path class="st5 drop-2" d="M404.82 135.86v31.39M404.82 221.92v300.73M404.82 549.99v31.38"/>
    <path class="st3 drop-2" d="M167.65 79.95v20.25"/>
    <path class="st6 drop-2" d="M167.65 139.43v451.18"/>
    <path class="st3 drop-2" d="M167.65 610.22v20.25M208.01 135.86v20.25"/>
    <path class="st7 drop-2" d="M208.01 195.61v533.27"/>
    <path class="st3 drop-2" d="M208.01 748.63v20.25"/>
    <g>
      <path class="st3 drop-2" d="M249.73 62.48v20.24"/>
      <path class="st8 drop-2" d="M249.73 122.53v378.13"/>
      <path class="st3 drop-2" d="M249.73 520.55v20.25"/>
    </g>
    <g>
      <path class="st3 drop-2" d="M292.73 79.95v20.25"/>
      <path class="st9 drop-2" d="M292.73 141.66v476.85"/>
      <path class="st3 drop-2" d="M292.73 639.24v20.25"/>
    </g>
    <g>
      <path class="st3 drop-2" d="M341.75 114.9v20.24"/>
      <path class="st10 drop-2" d="M341.75 174.68v533.75"/>
      <path class="st3 drop-2" d="M341.75 728.21v20.24"/>
    </g>
    <g>
      <path class="st3 drop-2" d="M373.94 62.48v20.24"/>
      <path class="st5 drop-2" d="M373.94 121.55v291.16"/>
      <path class="st3 drop-2" d="M373.94 432.13v20.25"/>
    </g>
    <g>
      <path class="st3 drop-2" d="M444.9 79.95v20.25"/>
      <path class="st11 drop-2" d="M444.9 142.29v315.72"/>
      <path class="st3 drop-2" d="M444.9 479.05v20.25"/>
    </g>
    <g>
      <path class="st3 drop-2" d="M488 114.9v20.24"/>
      <path class="st12 drop-2" d="M488 179.79v245.52"/>
      <path class="st3 drop-2" d="M488 447.63v20.25"/>
    </g>
    <g>
      <path class="st3 drop-2" d="M532.89 135.86v20.25"/>
      <path class="st13 drop-2" d="M532.89 196.78v467.59"/>
      <path class="st3 drop-2" d="M532.89 684.69v20.25"/>
    </g>
  </g>
</svg>