<svg xmlns="http://www.w3.org/2000/svg" viewBox="0 0 595.28 841.89">
  <style>
    .st1{fill:#346642}.st2{fill:#50aa50}.st5{fill:#7ee3ed}
  </style>
  <g id="trunk" class="trunk">
    <path d="M328.68 333.83c-43.72 75.1-53.39 257.78-32.58 388.05" fill="none" stroke="#346642" stroke-width="8" stroke-miterlimit="10"/>
    <path class="st1" d="M286.91 536.71c-6.7-13.16-22.35-19.78-37.11-19.89-14.76-.12-28.98 5.1-42.82 10.24a71.85 71.85 0 0025.52 33.59c4.5 3.22 9.6 5.98 15.13 6.26 3.6.18 7.18-.7 10.57-1.91a57.08 57.08 0 0031.11-26.97"/>
    <path class="st2" d="M388.29 568.16c-7.99 3.83-10.26 14-15.92 20.82-9.05 10.89-25.16 11.77-39.33 11.77-31.51.02-66.05-9.65-21.02-30.72a96.69 96.69 0 0139.09-9.15c6.89-.12 33.37 9.11 37.18 7.28z"/>
  </g>
  <g id="bowl" class="bowl">
    <path d="M215.08 686.85c0-16.09 161.2-13.34 161.2 0 0 44.51 0 80.6-80.6 80.6s-80.6-36.08-80.6-80.6z" fill="#ce8452"/>
    <path fill="#bc5e11" d="M207.54 667.1h177v35.68h-177z"/>
  </g>
  <g id="top-dark-leaves" class="top-dark-leaves">
    <path class="st1" d="M194.56 390.7a195.32 195.32 0 00-86.69 82.58 241.42 241.42 0 00118.84 7.02c35.67-6.91 95.26-35.76 80.08-82.56-14.72-45.42-82.97-21.07-112.23-7.04zM399.42 400.08c-3.84-6-7.8-12.12-13.48-16.43-5.67-4.3-13.51-6.49-20.05-3.67-9.29 4-12.18 15.76-12.13 25.87.15 28.07 14.57 55.7 37.51 71.88 14.2 10.02 35.61 23.34 52.65 25.44 7.02-31.4-28.05-77.42-44.5-103.09z"/>
    <path class="st1" d="M387.95 397.09a311.86 311.86 0 0066.82-22.98c6.46-3.08 13.59-7.45 14.48-14.54 1.03-8.26-6.92-14.57-14.01-18.94-14.83-9.14-30.18-17.9-47.02-22.36s-35.52-4.27-50.88 3.95c-17.63 9.43-48.62 41.94-36.63 63.34 11.41 20.37 49.1 15.54 67.24 11.53z"/>
  </g>
  <g id="top-light-leaves" class="top-light-leaves">
    <path class="st2" d="M302.24 252.02c-5.91 12.15-6.23 26.16-6.44 39.67-.28 18.14-.51 36.64 4.84 53.98.75 2.42 1.79 5.03 4.04 6.2 2.9 1.49 6.37-.06 9.23-1.63 26.36-14.51 52.08-33.37 64.81-60.64 8.79-18.85 13.13-66.57-12.82-76.01-20.23-7.37-55.61 21.88-63.66 38.43zM348.22 503.73c31.02-23.8 34.99-111.33-18.39-111.13-63.87.23 25.92 105.35 18.39 111.13z"/>
    <path class="st2" d="M269.93 301.3a156.03 156.03 0 00-98.22-27.55c-7.06 28.72 10.56 57.79 31.32 78.86 17.16 17.42 37.57 32.44 61.11 39.03 21.54 6.03 62.27 8.16 61.16-20.08-.98-25.13-36.69-57.22-55.37-70.26z"/>
  </g>
  <path  d="M135.99 189.63c-.94 6.16-1.08 12.62 1.11 18.46 2.19 5.83 7.08 10.93 13.22 12.03 10.95 1.95 19.92-8.7 24.46-18.85 6.15-13.76 8.96-30.01 2.91-43.82-3.5-8-8.56-17.64-14.51-23.5-13.34 14.6-24.18 35.94-27.19 55.68z" id="left-drop" class="left-drop drop st5"/>
  <path  d="M339.21 47.83a81.53 81.53 0 00-18.89 29.33c-2.13 5.73-3.62 11.94-2.46 17.94 1.16 6 5.53 11.71 11.53 12.86 7.71 1.49 15.14-5.03 17.51-12.52 2.37-7.49 1-15.59-.4-23.32l-4.58-25.4" id="center-drop" class="center-drop drop st5"/>
  <path  d="M471.04 200.18c-3.29 10.03-6.6 20.75-3.91 30.95 2.69 10.2 14.06 18.81 23.73 14.58 5.93-2.59 9.34-9.17 9.9-15.61s-1.23-12.85-3.17-19.02c-3.05-9.71-7.32-33.07-17.36-36.26-4.2 7.77-6.4 16.85-9.19 25.36z" id="right-drop"  class="right-drop drop st5"/>
</svg>


