<svg height="512" viewBox="0 0 60 60" width="512" xmlns="http://www.w3.org/2000/svg">
  <g fill="#000" fill-rule="nonzero">
    <path d="M31 41h4c.55228 0 1-.44772 1-1s-.44772-1-1-1h-4c-.55228 0-1 .44772-1 1s.44772 1 1 1z"/>
    <path d="M50.459 19.635a20.765 20.765 0 013.99 8.109c.22546.70077.85903 1.19045 1.594 1.232A2.78099 2.78099 0 0056.4 29c.71728.0411 1.4025-.30152 1.8-.9 4.324-7.414-.208-11.65-2.357-13.127A6.349 6.349 0 0052.33 14h-8.338a.976.976 0 00-.149.028 1.062 1.062 0 00-.234.053h-.016c-.333.148-.656.3-.974.46a34.846 34.846 0 0111.872-12.67c.3958-.22325.59131-.6853.47597-1.12483S54.45442.00013 54 0c-6.291 0-10.991.577-18.707 8.293a31.207 31.207 0 00-2.6 2.988C24.987 3.577 20.288 3 14 3c-.48366-.00097-.8987.34435-.9857.82013s.17899.94562.6317 1.11587A26.293 26.293 0 0124.591 14H17.67a6.349 6.349 0 00-3.519.974C12 16.45 7.471 20.686 11.8 28.1c.39735.59864 1.08267.9413 1.8.9a2.781 2.781 0 00.361-.024c.73497-.04155 1.36854-.53123 1.594-1.232a20.771 20.771 0 013.991-8.11c2.50088 2.12284 4.1104 5.1098 4.508 8.366H22c-2.76005.0033-4.9967 2.23995-5 5 0 .55228.44772 1 1 1h2v6.265L13.5 36.5a2.988 2.988 0 00-.044-1.745l-1.023-3.07c0-.01-.012-.017-.015-.027a1.061 1.061 0 00-.1-.172.969.969 0 00-.111-.167c-.007-.008-.009-.018-.017-.025l-1.414-1.414c-1.1874-1.13308-3.0556-1.13308-4.243 0L.879 35.535a3 3 0 000 4.243l1.414 1.414c.008.008.018.01.026.018a1.016 1.016 0 00.164.109.986.986 0 00.175.1c.009 0 .016.011.026.015l3.071 1.024a3.04 3.04 0 00.955.155 2.975 2.975 0 00.762-.112L19 57.986c.94552 1.26411 2.4304 2.01007 4.009 2.014H47c1.65685 0 3-1.34315 3-3v-1.04c5.936-.4 10-4.381 10-9.96 0-9.025-4.9-10-7-10a8.728 8.728 0 00-3 .541V34h2c.55228 0 1-.44772 1-1-.0033-2.76005-2.23995-4.9967-5-5h-2.052c.41031-3.25254 2.01876-6.23518 4.511-8.365zM52.33 16a4.39 4.39 0 012.386.622c2.547 1.75 4.919 4.966 1.822 10.366a.878.878 0 01-.22.007C55.55 24.2 53.6 18.925 49.371 16zM36.707 9.707c5.758-5.758 9.56-7.236 13.911-7.6a36.074 36.074 0 00-11.123 14.319c-.535.39-1.066.821-1.6 1.283a36.62 36.62 0 00-3.814-4.957 29.016 29.016 0 012.626-3.045zM18.4 5.217c3.945.512 7.59 2.183 12.9 7.49.261.261.513.513.763.782a34.917 34.917 0 014.359 5.619c-.498.504-.96933 1.01667-1.414 1.538a27.056 27.056 0 00-4.337-4.121 25.646 25.646 0 00-3.382-2.01A28.031 28.031 0 0018.4 5.217zM13.682 27a.757.757 0 01-.22-.007c-3.1-5.4-.724-8.616 1.822-10.366A4.39 4.39 0 0117.67 16h2.959c-4.229 2.925-6.179 8.2-6.947 11zm7.286-8.767a9.852 9.852 0 014.89-2.187 25.623 25.623 0 013.614 2.09 25.737 25.737 0 014.745 4.69 30.911 30.911 0 012.971 4.521c.128.238.239.454.341.658H26.055c-.393-3.78662-2.21164-7.28197-5.087-9.777zM2.293 36.949l5.656-5.656a1 1 0 011.415 0l.707.707L3 39.071l-.707-.707a1 1 0 010-1.415zm4.094 3.612l-1.536-.512 6.2-6.2.512 1.535c.1215.35922.02757.75629-.242 1.023l-3.91 3.91c-.26744.26894-.66401.36344-1.024.244zM50 43.862c.6559-1.05355 1.7648-1.7418 3-1.862.5 0 1 1.237 1 4 0 2.224-1.479 3.646-4 3.938zM53 38c3.271 0 5 2.767 5 8 0 4.407-3.242 7.571-8 7.959v-2.011c3.676-.344 6-2.6 6-5.948 0-3.981-1.01-6-3-6a5 5 0 00-3 1.046V38.71a6.709 6.709 0 013-.71zm-5 1h-9c-.55228 0-1 .44772-1 1s.44772 1 1 1h9v2H28c-.55228 0-1 .44772-1 1s.44772 1 1 1h20v12c0 .55228-.44772 1-1 1H23.009c-.94836-.0011-1.84086-.44865-2.409-1.208L9.149 41.406l3.241-3.24L19 42c.61849.35708 1.38044.35728 1.99911.00051.61867-.35676 1.00016-1.01635 1.00089-1.73051V34h26zm2.829-7H19.171c.42535-1.1977 1.55801-1.99845 2.829-2h26c1.27099.00155 2.40365.8023 2.829 2zm-6.884-4h-4.194c-.178-.387-.444-.937-.8-1.6a33.054 33.054 0 00-2.669-4.17 26.857 26.857 0 012.085-2.261 22.838 22.838 0 012.523-2.093 20.326 20.326 0 013.247-1.833 9.859 9.859 0 014.891 2.186c-2.88337 2.48567-4.7028 5.98315-5.083 9.771z"/>
  </g>
</svg>