<svg xmlns="http://www.w3.org/2000/svg" height="1000" width="1000">
<style> .weatherIcon{fill: rgb(134, 161, 172)}</style>
<path class="weatherIcon" d="M848.7 452.5C799.5 404.6 741 391 675.6 414.9c-12.2 4.5-17.1 4.8-22.7-9.2-42.5-105.9-141.6-164.2-254-151.2-102.8 12-183.7 93.3-202.7 203.3-1.1 6.6-.2 14.9-8.2 18.3-18.3 7.7-32.6 18.6-44.4 31.8l-.1-.3s-86.3 81.6-1.9 175.7c2.4 2.7 4.6 5.5 7.2 8l1.1 1.2.1-.2c20.5 19.7 46.7 31.5 78.8 34.4 32.9 3 66.2.2 99.3 1.1l285.2-.4c43.4 0 82.7 1.1 121.8-.3 69.2-2.4 119.1-35.8 147-99 26.5-59.7 13.5-129.9-33.4-175.6zm-601 346.8c-10.7-4.9-19.1-.2-26.5 7.1-29.4 29.3-58.6 58.7-88.1 87.9-11.2 11.1-18.3 23.3-4.8 36.2 12.9 12.4 25.5 6.4 36.7-4.8 28.3-28.4 56.7-56.7 85-85 5.5-5.5 10.9-11.1 10.8-18.8.9-11.3-4-18.4-13.1-22.6zm271 3.6c-8.6-3.9-15.2-.2-21.1 5.7-23.4 23.4-46.7 46.8-70.3 70.1-8.9 8.8-14.6 18.5-3.8 28.9 10.3 9.9 20.4 5.2 29.3-3.8 22.5-22.7 45.1-45.2 67.8-67.8 4.4-4.4 8.7-8.8 8.7-15 .6-9.1-3.2-14.7-10.6-18.1zm127.8 3c-31.3 30.4-62.1 61.5-92.7 92.7-6.5 6.6-7.3 15.3-3.1 23.6 4.1 8 10.9 12.8 23.2 12.6 3.3.2 8.4-2.4 12.4-6.5 30.5-30.4 61.2-60.5 91.1-91.4 8.9-9.2 9.1-20.7-.5-30.3-9.7-9.4-21.1-9.7-30.4-.7zm115 46c-1.6.4-3.8.6-5.6 1.7-21.9 13.5-39.4 31.6-53.3 52.8-5.2 7.9-.3 16.5 6.3 22.7 6.9 6.3 16.1 8.7 23.4 3.4 18.8-13.7 35.9-29.8 48.9-49 8.9-13-3.4-31.4-19.7-31.6zm-422.6-1.2c-17.1 13.4-33.2 28.3-45.6 46.2-9.8 14.1 2.2 33.2 19.5 32.7 1.4-.4 3.7-.5 5.3-1.7 21-13.2 38.1-30.8 51.7-51.3 5.3-8 2.2-18.1-5.8-24.6-7.7-6.1-16.7-7.9-25.1-1.3zm98.7-630.9c-2.4 4.6-4.3 9.4-5.9 14.1 81.5-2.1 154.1 33.9 200.1 98.4 2.4-3.6 4.6-7.3 6.6-11.4 27.8-55.4 5.6-122.7-49.8-150.6-55.6-27.9-123.1-5.9-151 49.5zm228.9 40c-1.1 6.6 2.4 13.8 8.6 17 2.2 1.2 4.6 1.8 7.2 1.7 16.8-.9 33.6-1.7 50.3-2.9 8.5-.6 14.5-8.1 14.1-16.5-.4-8.5-6.9-15.6-15.4-15.2-17.2.5-34.4 1.7-51.5 3-7 .3-12.1 6.1-13.3 12.9zm-68.8-100.7c8 4 17.5.7 21.7-7.6 3.6-7 7.1-14.1 10.6-21.1l10.4-20.7c.1-.3.3-.5.3-.7 3.9-8.2.8-17.6-7.1-21.6-8-4.1-17.6-1-21.8 7.3-7.2 14.2-14.3 28.3-21.3 42.5-4 8.3-.8 17.9 7.2 21.9zm-239.1 39.6c7.2 3.6 14.3 7.2 21.4 10.8l21.1 10.6c8.1 4 17.1 1.3 21.4-6.4 4.3-7.8 1.9-17.6-6.2-21.8-14.6-7.7-29.5-15.1-44.4-22.3-8-3.8-17.5.1-21.1 7.7-3.7 8.1-.3 17.2 7.8 21.4zm315.3 122c-8-3.8-17.5.1-21.1 7.7-3.8 8-.4 17.2 7.7 21.3 7.2 3.6 14.3 7.2 21.4 10.8l21.1 10.6c8.1 4 17.1 1.3 21.4-6.4 4.3-7.8 1.9-17.6-6.2-21.8-14.6-7.7-29.4-15.1-44.3-22.2zm-22.3-111.3c5.1 2.4 10.3 2.7 15-.3 14.2-9 28.3-18.2 42.2-27.6 7-4.8 8.3-14.4 3.8-21.4-4.6-7.1-13.9-9.8-21.1-5.3-14.3 9-28.6 18.2-42.5 27.9-9.7 6.6-7.9 21.4 2.6 26.7zm-129.4-68.6c11.1 5.5 23.6-2.4 23.1-15-.7-16.1-1.7-32.2-2.9-48.3-.6-9.3-8-15.5-17-15-8.9.6-15.5 7.7-15 17 .8 16 1.7 31.9 2.9 47.9.4 6.1 3.3 10.7 8.9 13.4zM444.4 159c1.7 2.4 3.8 4.4 5.7 5.2 7.3 3.6 15 2.2 19.8-3 5-5.4 5.9-13.1 1.7-19.5-8.7-13.6-17.6-26.9-26.6-40.3-5.2-7.8-15-9.7-22.5-4.7-7.6 5.2-9.4 14.4-4.2 22.5 8.6 13.4 17.5 26.5 26.1 39.8z"/></svg>