<?xml version="1.0" encoding="UTF-8" standalone="no"?>
<svg
   xmlns:dc="http://purl.org/dc/elements/1.1/"
   xmlns:cc="http://creativecommons.org/ns#"
   xmlns:rdf="http://www.w3.org/1999/02/22-rdf-syntax-ns#"
   xmlns:svg="http://www.w3.org/2000/svg"
   xmlns="http://www.w3.org/2000/svg"
   xmlns:sodipodi="http://sodipodi.sourceforge.net/DTD/sodipodi-0.dtd"
   xmlns:inkscape="http://www.inkscape.org/namespaces/inkscape"
   version="1.1"
   x="0px"
   y="0px"
   viewBox="0 0 92 92"
   xml:space="preserve"
   id="svg1025"
   sodipodi:docname="irrigatingImage.svg"
   width="92"
   height="92"
   inkscape:version="1.0.1 (3bc2e813f5, 2020-09-07)"><metadata
     id="metadata1031"><rdf:RDF><cc:Work
         rdf:about=""><dc:format>image/svg+xml</dc:format><dc:type
           rdf:resource="http://purl.org/dc/dcmitype/StillImage" /><dc:title></dc:title></cc:Work></rdf:RDF></metadata><defs
     id="defs1029" /><sodipodi:namedview
     pagecolor="#ffffff"
     bordercolor="#666666"
     borderopacity="1"
     objecttolerance="10"
     gridtolerance="10"
     guidetolerance="10"
     inkscape:pageopacity="0"
     inkscape:pageshadow="2"
     inkscape:window-width="2560"
     inkscape:window-height="1370"
     id="namedview1027"
     showgrid="false"
     showguides="true"
     inkscape:guide-bbox="true"
     inkscape:zoom="8.4"
     inkscape:cx="94.635763"
     inkscape:cy="36.441191"
     inkscape:window-x="0"
     inkscape:window-y="0"
     inkscape:window-maximized="1"
     inkscape:current-layer="svg1025"><sodipodi:guide
       position="45.97619,33.52381"
       orientation="1,0"
       id="guide2232" /></sodipodi:namedview><circle
     cx="82"
     cy="10"
     r="5"
     id="circle993" /><rect
     x="81"
     y="0"
     width="2"
     height="3"
     id="rect995" /><rect
     x="81"
     y="17"
     width="2"
     height="3"
     id="rect997" /><rect
     x="89"
     y="9"
     width="3"
     height="2"
     id="rect999" /><rect
     x="72"
     y="9"
     width="3"
     height="2"
     id="rect1001" /><rect
     x="57.919724"
     y="64.047302"
     transform="rotate(-44.991897)"
     width="2.9999712"
     height="1.9999808"
     id="rect1003"
     style="stroke-width:0.99999" /><rect
     x="40.910187"
     y="64.054085"
     transform="rotate(-45)"
     width="2.9999712"
     height="1.9999808"
     id="rect1005"
     style="stroke-width:0.99999" /><rect
     x="49.911102"
     y="72.054222"
     transform="rotate(-45)"
     width="1.9999808"
     height="2.9999712"
     id="rect1007"
     style="stroke-width:0.99999" /><rect
     x="49.903736"
     y="55.058395"
     transform="rotate(-45.008103)"
     width="1.9999808"
     height="2.9999712"
     id="rect1009"
     style="stroke-width:0.99999" /><path
     d="m 47.011012,77.171439 -0.007,-7.039 c 6.143,-0.399 11.009,-5.646 11.009,-11.886 v -0.245 c -6.181,0 -11.237,4.927 -11.709,11.001 l -0.583,0.001 c -0.472,-6.06 -5.528,-10.832 -11.708,-10.832 v 0.245 c 0,6.234 4.857,11.321 10.991,11.717 l 0.007,7.039 z"
     id="path1011"
     sodipodi:nodetypes="ccsccccsccc"
     style="fill:#008000" /><rect
     x="8"
     y="11"
     width="12"
     height="14"
     id="rect1013" /><path
     d="m 29,8 v 6 h -7 v 8 h 18 c 1.105,0 2,0.895 2,2 v 5 h 7 v -7 c 0,-4.418 -3.582,-8 -8,-8 H 39 V 8 H 37 V 6 h 1 V 4 h 7 V 2 H 38 V 0 h -8 v 2 h -7 v 2 h 7 v 2 h 1 v 2 z m 4,-2 h 2 v 2 h -2 z"
     id="path1015" /><path
     d="M 39.613,45.465 C 37.023,50.212 40.459,56 45.866,56 51.273,56 54.709,50.212 52.12,45.465 L 45.866,34 Z M 46.586,53 c -2.676,0 -4.854,-2.243 -4.854,-5 h 2 c 0,1.654 1.28,3 2.854,3 z"
     id="path1017"
     style="fill:#0000ff" /><rect
     x="3.0000001e-07"
     y="13"
     width="6"
     height="10"
     id="rect1019" /><path
     d="m 82.786,82.464 4.707,2.664 -0.985,1.74 -5,-2.83 c -0.19,-0.107 -0.34,-0.274 -0.426,-0.476 L 80.41,82 H 77 l -3,1.17 -6,-2 -1.265,-0.316 c -0.293,0.531 -0.582,1.076 -0.84,1.592 -0.097,0.193 -0.254,0.351 -0.447,0.447 l -8,4 -0.895,-1.789 7.704,-3.852 c 0.117,-0.229 0.284,-0.548 0.472,-0.9 L 64,80.17 h -4 l -8,-3 -12,0.001 -4,2 -12,3 -2.954,0.454 0.55,0.688 2.72,0.907 c 0.084,0.027 0.165,0.066 0.238,0.116 l 3,2 L 26.445,88 23.556,86.074 20.683,85.116 C 20.5,85.055 20.339,84.943 20.219,84.793 L 18.765,82.975 11,84.17 0,82.17 V 92 H 92 V 82 h -9.414 z"
     id="path1011-3"
     sodipodi:nodetypes="ccccccccccccccccccccccccccccccccccccccc" /></svg>
