<?xml version="1.0" encoding="UTF-8" standalone="no"?>
<svg
   xmlns:dc="http://purl.org/dc/elements/1.1/"
   xmlns:cc="http://creativecommons.org/ns#"
   xmlns:rdf="http://www.w3.org/1999/02/22-rdf-syntax-ns#"
   xmlns:svg="http://www.w3.org/2000/svg"
   xmlns="http://www.w3.org/2000/svg"
   xmlns:sodipodi="http://sodipodi.sourceforge.net/DTD/sodipodi-0.dtd"
   xmlns:inkscape="http://www.inkscape.org/namespaces/inkscape"
   width="187.37904mm"
   height="190.08098mm"
   viewBox="0 0 187.37904 190.08098"
   version="1.1"
   id="svg1432"
   inkscape:version="1.0.1 (3bc2e813f5, 2020-09-07)"
   sodipodi:docname="logo.svg">
  <defs
     id="defs1426" />
  <sodipodi:namedview
     id="base"
     pagecolor="#ffffff"
     bordercolor="#666666"
     borderopacity="1.0"
     inkscape:pageopacity="0.0"
     inkscape:pageshadow="2"
     inkscape:zoom="0.98994949"
     inkscape:cx="184.35775"
     inkscape:cy="488.6223"
     inkscape:document-units="mm"
     inkscape:current-layer="layer1"
     inkscape:document-rotation="0"
     showgrid="false"
     inkscape:window-width="2560"
     inkscape:window-height="1370"
     inkscape:window-x="0"
     inkscape:window-y="0"
     inkscape:window-maximized="1" />
  <metadata
     id="metadata1429">
    <rdf:RDF>
      <cc:Work
         rdf:about="">
        <dc:format>image/svg+xml</dc:format>
        <dc:type
           rdf:resource="http://purl.org/dc/dcmitype/StillImage" />
        <dc:title></dc:title>
      </cc:Work>
    </rdf:RDF>
  </metadata>
  <g
     inkscape:label="Layer 1"
     inkscape:groupmode="layer"
     id="layer1"
     transform="translate(-32.757158,-4.0882563)"
     style="display:inline">
    <g
       id="g2332"
       transform="matrix(2.8102882,0,0,2.8102882,19.825439,-5.9083347)">
      <g
         id="g2547"
         transform="matrix(1.0517695,0,0,1.0517695,5.0562128,-29.250709)"
         style="fill:#00b8aa;fill-opacity:1">
        <path
           d="M 43.318205,56.088676 25.710542,32.078581 a 2.3837006,2.3837006 0 0 0 -3.708183,0 L 4.3960756,56.088676 A 25.115975,25.115975 0 0 0 1.9346806,81.538874 23.644149,23.644149 0 0 0 21.971098,95.437435 c 0.622934,0.04138 1.250236,0.0639 1.884893,0.0639 0.634657,0 1.261499,-0.02299 1.886732,-0.0639 A 23.64277,23.64277 0 0 0 45.776152,81.540023 25.120342,25.120342 0 0 0 43.318205,56.088676 Z m -1.710426,23.512895 a 19.106383,19.106383 0 0 1 -16.172615,11.249826 23.940215,23.940215 0 0 1 -3.156047,0 A 19.11098,19.11098 0 0 1 6.1032833,79.600422 20.518904,20.518904 0 0 1 8.1031093,58.80706 L 23.855991,37.324562 39.609792,58.80706 a 20.520972,20.520972 0 0 1 1.997987,20.794511 z"
           id="path2513"
           style="fill:#00b8aa;fill-opacity:1;stroke-width:2.29865" />
        <path
           d="m 23.855991,81.709434 c -0.300893,0 -0.599258,-0.01126 -0.888888,-0.02919 A 11.040188,11.040188 0 0 1 12.895796,70.324908 2.2986505,2.2986505 0 0 0 10.634153,67.989249 h -0.03816 A 2.2986505,2.2986505 0 0 0 8.2973452,70.250661 15.614963,15.614963 0 0 0 22.661842,86.268348 q 0.591903,0.03839 1.194149,0.03839 a 2.2986505,2.2986505 0 0 0 0,-4.597301 z"
           id="path2515"
           style="fill:#00b8aa;fill-opacity:1;stroke-width:2.29865" />
      </g>
    </g>
    <path
       d="m 59.844153,58.488761 v -1.960029 h -1.960037 v 1.960029 z m 7.088774,-9.146807 h -5.422748 v 1.96003 h 5.422748 c 0.367834,0.770291 1.147924,1.306687 2.058036,1.306687 1.262906,0 2.286696,-1.023788 2.286696,-2.286701 0,-1.262913 -1.02379,-2.286704 -2.286696,-2.286704 -0.910765,0 -1.690202,0.536396 -2.058036,1.306688 z m -26.03574,8.166793 c 0,1.622905 1.316496,2.940045 2.940055,2.940045 1.277932,0 2.354644,-0.821253 2.759722,-1.960031 h 9.653802 v -1.960029 h -9.653802 c -0.405078,-1.138778 -1.482443,-1.96003 -2.759722,-1.96003 -1.623559,0 -2.940055,1.317139 -2.940055,2.940045 z m 4.573405,0 c 0,0.901614 -0.731736,1.633358 -1.63335,1.633358 -0.901613,0 -1.633364,-0.731744 -1.633364,-1.633358 0,-0.901615 0.731751,-1.63336 1.633364,-1.63336 0.901614,0 1.63335,0.731745 1.63335,1.63336 z m 12.413524,-8.166793 v 1.96003 h 1.960037 v -1.96003 z m 5.553424,9.146807 v 4.475404 c -0.7703,0.367831 -1.306691,1.14727 -1.306691,2.058031 0,1.262912 1.023789,2.286701 2.286709,2.286701 1.262906,0 2.286696,-1.023789 2.286696,-2.286701 0,-0.910761 -0.536391,-1.6902 -1.306691,-2.058031 v -6.435433 h -3.92006 v 1.960029 z M 59.844153,31.701681 V 29.74165 h -1.960037 v 1.960031 z m -3.593387,8.493464 H 49.86433 c -0.405077,-1.138777 -1.482428,-1.960031 -2.760374,-1.960031 -1.62356,0 -2.940041,1.317141 -2.940041,2.940045 0,1.622906 1.316481,2.940046 2.940041,2.940046 1.277946,0 2.354644,-0.821252 2.760374,-1.96003 h 6.386436 z m -9.14681,2.613373 c -0.901613,0 -1.633364,-0.731745 -1.633364,-1.633359 0,-0.901613 0.731751,-1.633358 1.633364,-1.633358 0.901614,0 1.633364,0.731745 1.633364,1.633358 0,0.901614 -0.73175,1.633359 -1.633364,1.633359 z M 62.130849,23.86156 c 0,0.91076 0.536391,1.690199 1.306691,2.058032 v 3.822058 h -1.966564 l 0.0069,1.960031 h 3.919407 l 6.52e-4,-5.782089 c 0.7703,-0.367833 1.306691,-1.147925 1.306691,-2.058032 0,-1.262913 -1.023789,-2.286702 -2.286695,-2.286702 -1.26292,0 -2.28671,1.023789 -2.28671,2.286702 z m 4.573405,11.76018 c 0,0.910761 0.536391,1.6902 1.306691,2.058033 v 2.515372 h -6.533442 v 1.959376 h 8.491507 l 0.0013,-4.474748 c 0.770953,-0.367179 1.307344,-1.147272 1.307344,-2.058033 0,-1.262911 -1.02379,-2.286701 -2.286696,-2.286701 -1.26292,0 -2.286709,1.02379 -2.286709,2.286701 z m -6.860101,4.573405 h -1.960037 v 1.959376 h 1.960037 z M 56.250766,31.701681 V 29.74165 H 50.61698 l -2.614674,2.613374 h -4.018725 c -0.405063,-1.138778 -1.482428,-1.96003 -2.759721,-1.96003 -1.62356,0 -2.940041,1.317139 -2.940041,2.940045 0,1.622904 1.316481,2.940045 2.940041,2.940045 1.277946,0 2.354658,-0.821253 2.759721,-1.960029 h 4.832783 l 2.613382,-2.613374 z M 41.22386,34.968397 c -0.901613,0 -1.63335,-0.731744 -1.63335,-1.633358 0,-0.901613 0.731737,-1.633358 1.63335,-1.633358 0.901614,0 1.633364,0.731745 1.633364,1.633358 0,0.901614 -0.73175,1.633358 -1.633364,1.633358 z m -7.513443,12.740197 c 0,1.622906 1.316492,2.940047 2.940038,2.940047 1.277946,0 2.354658,-0.821252 2.759735,-1.96003 h 3.366019 l 2.613368,2.613373 h 10.861189 v -1.96003 H 46.20169 L 43.588974,46.728579 H 39.41019 c -0.405077,-1.138778 -1.482442,-1.96003 -2.759735,-1.96003 -1.623546,0 -2.940038,1.317139 -2.940038,2.940045 z m 4.573402,0 c 0,0.901615 -0.73175,1.63336 -1.633364,1.63336 -0.901613,0 -1.63335,-0.731745 -1.63335,-1.63336 0,-0.901615 0.731737,-1.63336 1.63335,-1.63336 0.901614,0 1.633364,0.731745 1.633364,1.63336 z"
       id="path2330"
       sodipodi:nodetypes="cccccccccssscssccccssssssscccccccsssccccccccccccssscccssssssccccccssssccccccsssccccccccccsssccccsssssssccccccccsssssss"
       style="display:inline;opacity:1;fill:#000000;fill-opacity:1;stroke-width:0.653343"
       transform="matrix(2.8102883,0,0,2.8102883,19.825439,-5.9083347)" />
  </g>
  <g
     inkscape:groupmode="layer"
     id="layer2"
     inkscape:label="Layer 2"
     style="display:inline;opacity:0.557793"
     transform="matrix(2.8102882,0,0,2.8102882,-12.931719,-9.996591)" />
</svg>
