<?xml version="1.0" encoding="UTF-8" standalone="no"?>
<svg
   xmlns:dc="http://purl.org/dc/elements/1.1/"
   xmlns:cc="http://creativecommons.org/ns#"
   xmlns:rdf="http://www.w3.org/1999/02/22-rdf-syntax-ns#"
   xmlns:svg="http://www.w3.org/2000/svg"
   xmlns="http://www.w3.org/2000/svg"
   xmlns:sodipodi="http://sodipodi.sourceforge.net/DTD/sodipodi-0.dtd"
   xmlns:inkscape="http://www.inkscape.org/namespaces/inkscape"
   version="1.1"
   x="0px"
   y="0px"
   viewBox="0 0 92 92"
   xml:space="preserve"
   id="svg1025"
   sodipodi:docname="plant.svg"
   width="92"
   height="92"
   inkscape:version="1.0.1 (3bc2e813f5, 2020-09-07)"><metadata
     id="metadata1031"><rdf:RDF><cc:Work
         rdf:about=""><dc:format>image/svg+xml</dc:format><dc:type
           rdf:resource="http://purl.org/dc/dcmitype/StillImage" /><dc:title></dc:title></cc:Work></rdf:RDF></metadata><defs
     id="defs1029" /><sodipodi:namedview
     pagecolor="#ffffff"
     bordercolor="#666666"
     borderopacity="1"
     objecttolerance="10"
     gridtolerance="10"
     guidetolerance="10"
     inkscape:pageopacity="0"
     inkscape:pageshadow="2"
     inkscape:window-width="2560"
     inkscape:window-height="1370"
     id="namedview1027"
     showgrid="false"
     showguides="true"
     inkscape:guide-bbox="true"
     inkscape:zoom="8.4"
     inkscape:cx="94.635763"
     inkscape:cy="36.441191"
     inkscape:window-x="0"
     inkscape:window-y="0"
     inkscape:window-maximized="1"
     inkscape:current-layer="svg1025"><sodipodi:guide
       position="45.97619,33.52381"
       orientation="1,0"
       id="guide2232" /></sodipodi:namedview><path
     d="m 47.011012,77.171439 -0.007,-7.039 c 6.143,-0.399 11.009,-5.646 11.009,-11.886 v -0.245 c -6.181,0 -11.237,4.927 -11.709,11.001 l -0.583,0.001 c -0.472,-6.06 -5.528,-10.832 -11.708,-10.832 v 0.245 c 0,6.234 4.857,11.321 10.991,11.717 l 0.007,7.039 z"
     id="path1011"
     sodipodi:nodetypes="ccsccccsccc"
     style="fill:#008000" /><path
     d="m 82.786,82.464 4.707,2.664 -0.985,1.74 -5,-2.83 c -0.19,-0.107 -0.34,-0.274 -0.426,-0.476 L 80.41,82 H 77 l -3,1.17 -6,-2 -1.265,-0.316 c -0.293,0.531 -0.582,1.076 -0.84,1.592 -0.097,0.193 -0.254,0.351 -0.447,0.447 l -8,4 -0.895,-1.789 7.704,-3.852 c 0.117,-0.229 0.284,-0.548 0.472,-0.9 L 64,80.17 h -4 l -8,-3 -12,0.001 -4,2 -12,3 -2.954,0.454 0.55,0.688 2.72,0.907 c 0.084,0.027 0.165,0.066 0.238,0.116 l 3,2 L 26.445,88 23.556,86.074 20.683,85.116 C 20.5,85.055 20.339,84.943 20.219,84.793 L 18.765,82.975 11,84.17 0,82.17 V 92 H 92 V 82 h -9.414 z"
     id="path1011-3"
     sodipodi:nodetypes="ccccccccccccccccccccccccccccccccccccccc" /></svg>
