<svg height="512" viewBox="0 0 24 24" width="512" xmlns="http://www.w3.org/2000/svg">
  <path d="M13.12 24h-2.24a1.5 1.5 0 01-1.49-1.32l-.24-1.88a9.45 9.45 0 01-1.37-.57l-1.5 1.17a1.5 1.5 0 01-1.98-.13L2.73 19.7a1.49 1.49 0 01-.13-1.98l1.17-1.5c-.23-.44-.42-.9-.57-1.37l-1.88-.24A1.5 1.5 0 010 13.12v-2.24c0-.76.57-1.4 1.32-1.49l1.88-.24c.15-.47.34-.93.56-1.37L2.6 6.28a1.5 1.5 0 01.13-1.98l1.58-1.57a1.49 1.49 0 011.98-.13l1.49 1.17c.44-.23.9-.42 1.37-.57l.24-1.88A1.5 1.5 0 0110.88 0h2.24c.76 0 1.4.57 1.49 1.32l.24 1.88c.47.15.93.34 1.37.56l1.5-1.16a1.5 1.5 0 011.98.13l1.57 1.58c.54.52.6 1.37.13 1.97l-1.17 1.5c.23.44.42.9.57 1.37l1.88.24c.75.1 1.32.73 1.32 1.49v2.24c0 .76-.57 1.4-1.32 1.49l-1.88.24c-.15.47-.34.93-.57 1.37l1.17 1.5c.47.6.41 1.45-.13 1.98l-1.58 1.57c-.52.54-1.37.6-1.98.13l-1.49-1.17c-.44.23-.9.42-1.37.57l-.24 1.88A1.5 1.5 0 0113.12 24zm-5.39-4.86a.5.5 0 01.24.06c.55.31 1.15.56 1.78.74.19.05.33.22.36.42l.28 2.2a.5.5 0 00.49.44h2.24a.5.5 0 00.5-.44l.27-2.2a.5.5 0 01.36-.42 8.4 8.4 0 001.78-.74.5.5 0 01.55.05l1.75 1.36c.2.15.48.14.65-.04L20.57 19a.5.5 0 00.04-.66l-1.36-1.75a.5.5 0 01-.05-.55c.31-.55.56-1.15.74-1.78a.5.5 0 01.42-.36l2.2-.28a.5.5 0 00.44-.49v-2.24a.5.5 0 00-.44-.5l-2.2-.27a.5.5 0 01-.42-.36 8.4 8.4 0 00-.74-1.78.5.5 0 01.05-.55l1.36-1.75a.49.49 0 00-.04-.65L19 3.43a.5.5 0 00-.66-.03l-1.75 1.36a.5.5 0 01-.55.04 8.36 8.36 0 00-1.78-.74.5.5 0 01-.35-.42l-.29-2.2a.5.5 0 00-.49-.44h-2.24a.5.5 0 00-.5.44l-.27 2.2a.5.5 0 01-.36.42c-.63.18-1.23.43-1.78.74a.5.5 0 01-.55-.05L5.67 3.4a.49.49 0 00-.65.04L3.43 5a.5.5 0 00-.04.66l1.36 1.75a.5.5 0 01.05.55c-.31.55-.56 1.15-.74 1.78a.5.5 0 01-.42.36l-2.2.28a.5.5 0 00-.44.49v2.24c0 .25.2.46.44.5l2.2.27c.2.03.36.17.42.36.18.63.43 1.22.74 1.78.1.17.08.39-.05.55L3.4 18.33c-.15.2-.14.48.04.65L5 20.56c.18.19.46.2.66.04l1.75-1.36c.1-.06.2-.1.31-.1z"/>
  <path d="M12 17a5 5 0 11.01-10.01A5 5 0 0112 17zm0-9a4 4 0 100 8 4 4 0 000-8z"/>
</svg>