<svg xmlns="http://www.w3.org/2000/svg" height="1000" width="1000"><path d="M565.7 450.7c-8 2.9-11.1 3.2-14.8-6-27.7-69-92.3-107-165.6-98.5-67 7.8-119.8 60.7-132.1 132.4-.8 4.3-.1 9.7-5.3 11.9-11.9 5.1-21.3 12.2-29 20.7l-.1-.2s-56.2 53.2-1.2 114.5c1.5 1.8 3.1 3.6 4.6 5.2l.7.8.1-.1c13.3 12.8 30.5 20.5 51.4 22.4 21.4 1.9 43.1.1 64.8.7l185.9-.3c28.3 0 53.8.7 79.4-.2 45.1-1.6 77.5-23.3 95.7-64.6 17.2-39 8.8-84.8-21.9-114.5-31.9-30.8-70.1-39.7-112.6-24.2zm-415.3 156c-1.9.7-2.6.8-3.5-1.4-6.6-16.3-21.8-25.3-39.1-23.3-15.8 1.8-28.3 14.4-31.2 31.3-.2 1.1 0 2.3-1.2 2.8-2.8 1.2-5 2.9-6.8 4.9 0 0-13.3 12.6-.3 27 .4.4.7.9 1.1 1.2l.2.2c3.2 3.1 7.2 4.8 12.2 5.3 5.1.4 10.2 0 15.3.2l43.9-.1c6.7 0 12.7.2 18.7 0 10.7-.4 18.3-5.5 22.7-15.2 4.1-9.2 2.1-20-5.2-27-7.7-7.5-16.7-9.6-26.8-5.9zm437.5-191.5l.2.2c3.2 3.2 7.4 5 12.5 5.4 5.2.4 10.5 0 15.8.2l45.2-.1c6.9 0 13 .2 19.3 0 10.9-.4 18.8-5.7 23.3-15.7 4.2-9.5 2.1-20.6-5.3-27.8-7.8-7.6-17.1-9.7-27.4-6-1.9.7-2.7.8-3.6-1.5-6.7-16.7-22.4-26-40.2-23.9-16.3 1.9-29.1 14.8-32.1 32.1-.2 1.1 0 2.4-1.3 2.9-2.9 1.2-5.2 3-7 5 0 0-13.7 13-.3 27.8.2.5.5 1 .9 1.4zm337.5 157.3c-12.7-12.3-27.8-15.9-44.7-9.7-3.2 1.1-4.4 1.2-5.9-2.4-11-27.4-36.6-42.4-65.6-39-26.5 3.1-47.4 24.1-52.4 52.5-.3 1.8 0 3.9-2.1 4.7-4.7 2-8.4 4.8-11.5 8.2v-.1s-22.3 21.1-.5 45.4l1.8 2.1c.1.1.2.2.3.4 5.3 5.1 12.1 8.1 20.4 8.9 8.5.8 17.2.1 25.6.3l73.7-.1c11.2 0 21.4.3 31.5-.1 17.9-.6 30.7-9.3 38-25.6 6.9-15.5 3.5-33.6-8.6-45.5z"/></svg>