<svg xmlns="http://www.w3.org/2000/svg" height="1000" width="1000">
<style> .weatherIcon{fill: rgb(134, 161, 172)}</style>

<path class="weatherIcon" d="M892.3 474.7c-47.3-46-103.5-59.2-166.3-36.1-11.8 4.3-16.5 4.6-21.9-8.8C668.4 341 591.6 287.1 500.9 283c-41.6-20.4-91.3-26.5-141.8-20.7-103.6 12.1-185.2 93.9-204.3 204.8-1.1 6.7-.2 15.1-8.2 18.5-18.4 7.8-32.8 18.8-44.7 32l-.1-.3s-86.9 82.3-1.9 177c2.4 2.7 4.7 5.5 7.3 8.1l1.1 1.2.1-.2c20.7 19.8 47.1 31.7 79.5 34.7 22.6 2.1 90 1.8 132.1 1.6 24 .5 48.1-.9 72.1-.2l274.2-.4c41.7 0 79.5 1 117.1-.3 66.5-2.3 114.5-34.4 141.3-95.2 25.2-57.5 12.7-125-32.4-168.9zm-627.2 5.1c-1.1 6.4-.2 14.4-7.9 17.6-17.5 7.4-31.3 17.9-42.7 30.5l-.1-.3s-82.9 78.5-1.8 169c2.3 2.6 4.5 5.2 6.9 7.7l1.1 1.2.1-.2c19.7 18.9 44.9 30.3 75.8 33.1 4.3.4 8.6.4 12.8.7-23.6-.3-49.9-.6-53.4-1-30.9-2.8-56.1-14.2-75.8-33.1l-.1.2-1.1-1.2c-2.5-2.4-4.6-5.1-6.9-7.7-81.1-90.5 1.8-169 1.8-169l.1.3c11.4-12.6 25.1-23.1 42.7-30.5 7.7-3.2 6.8-11.3 7.9-17.6 18.3-105.8 96.2-183.9 195-195.4 24.2-2.8 49.3-4 72.4-1-10.5-.1-21 0-31.8 1.2-99 11.6-176.8 89.7-195 195.5z"/></svg>