<svg xmlns="http://www.w3.org/2000/svg" height="1000" width="1000">
<style> .weatherIcon{fill: rgb(134, 161, 172)}</style>

<path class="weatherIcon" d="M885.5 335.1c-54.4-52.9-119.2-68-191.4-41.6-13.5 5-18.9 5.4-25.1-10.1-47.1-117.1-156.5-181.7-280.9-167.2C274.4 129.4 184.8 219.3 163.8 341c-1.3 7.3-.2 16.5-9.1 20.3-20.2 8.5-36.1 20.7-49.1 35.1l-.1-.3s-95.4 90.3-2.1 194.4c2.6 3 5.1 6.1 7.9 8.8.5.5.8.9 1.2 1.4l.1-.2c22.6 21.7 51.6 34.8 87.2 38.1 36.4 3.3 73.3.2 109.9 1.2 14 .4 16.2-7.4 19-18 17.1-63 34.9-125.9 51.8-188.9 3.5-12.8 8.5-18.8 23.4-18.5 49.1 1.1 98.3 1 147.4.1 15.9-.3 18.3 4.5 14 18.8-10.4 34.9-19.5 70.2-30 108.5H694c-23.7 33.6-44.9 63.7-68.7 97.4 48 0 91.4 1.2 134.7-.3 76.5-2.6 131.7-39.5 162.6-109.6 29.2-66.1 14.8-143.7-37.1-194.2zM510.8 574.6c-15 .3-21.2-1.5-15.4-19.2 10-30.2 16.7-61.5 25.7-92 3.5-11.8.6-15.3-11.2-15.1-28 .5-56.1.4-84.1 0-9.1-.1-14.4 2.6-17 11.8-16.9 61.4-34 122.8-51.1 184.1-2.7 9.6-.6 14.3 10.7 14 21.8-.6 43.7.6 65.4-.4 16.5-.7 23.3.6 18 21.1-17.4 67.6-32.2 135.9-48.1 203.9l3.7 2.9c73-102.7 146-205.3 221.4-311.5-43.3.2-80.7-.3-118 .4zm-290 144c-11.8-5.4-21.1-.2-29.3 7.9-32.5 32.4-64.8 65-97.4 97.2-12.4 12.2-20.2 25.7-5.3 40.1 14.3 13.7 28.2 7.1 40.6-5.4 31.2-31.5 62.7-62.7 94-94.1 6.1-6.1 12.1-12.2 12-20.8 1-12.4-4.4-20.2-14.6-24.9zm441.1 7.3c-34.7 33.7-68.7 68.1-102.6 102.5-7.2 7.3-8.1 16.9-3.4 26.1 4.6 8.8 12.1 14.1 25.6 14 3.7.2 9.3-2.7 13.8-7.2 33.7-33.5 67.6-66.9 100.7-101.1 9.9-10.2 10-22.9-.6-33.5-10.5-10.4-23.2-10.8-33.5-.8zm127.3 50.9c-1.8.5-4.3.7-6.2 1.9-24.2 14.9-43.6 34.9-58.9 58.4-5.7 8.7-.4 18.3 6.9 25.1 7.6 7 17.8 9.7 25.9 3.8 20.8-15.2 39.7-33 54.1-54.2 9.7-14.4-3.9-34.8-21.8-35zm-467.4-1.4c-19 14.9-36.8 31.4-50.5 51.1-10.8 15.6 2.4 36.8 21.6 36.2 1.5-.4 4.1-.6 5.9-1.8 23.2-14.7 42.2-34 57.2-56.7 5.9-8.9 2.4-20-6.4-27.2-8.6-6.9-18.6-8.8-27.8-1.6z"/></svg>