<svg xmlns="http://www.w3.org/2000/svg" height="1000" width="1000">
<style> .weatherIcon{fill: rgb(134, 161, 172)}</style>

<path class="weatherIcon" d="M897.8 551.9c-5.3-19.8-25.7-31.5-45.5-26.3l-159.1 42.7-61.3-35.4v-66.5l60.6-34.8 159.8 42.8c3.2.9 6.5 1.3 9.6 1.3 16.4 0 31.4-10.9 35.9-27.6 5.3-19.9-6.5-40.2-26.3-45.5L784 379.1l80.8-46.3c17.8-10.2 24-32.9 13.8-50.8-10.2-17.8-32.9-24-50.8-13.8l-80.9 46.5 23.5-87.7c5.3-19.8-6.5-40.2-26.3-45.5-19.7-5.2-40.2 6.5-45.5 26.3l-42.7 159.1-61 35-57.8-33.5v-70.2L654 181.3c14.5-14.5 14.5-38.1 0-52.6s-38-14.5-52.6 0L537 193.1V99.7c0-20.5-16.6-37.2-37.2-37.2-20.5 0-37.2 16.6-37.2 37.2v93l-63.9-63.9c-14.5-14.5-38-14.5-52.6 0-14.5 14.5-14.5 38.1 0 52.6l116.5 116.5v70.9L405 401.9l-61-35-42.5-159.1c-5.3-19.8-25.7-31.5-45.5-26.3-19.9 5.3-31.6 25.8-26.3 45.5l23.5 87.7-80.9-46.5c-17.9-10.2-40.6-4.1-50.8 13.8-10.2 17.8-4 40.6 13.8 50.7l80.8 46.4-87.6 23.5c-19.8 5.3-31.6 25.7-26.3 45.5 4.5 16.6 19.4 27.6 35.9 27.6 3.2 0 6.4-.4 9.6-1.3l159.8-42.8 60.5 34.8.1 66.5-61.3 35.5-159.1-42.7c-19.7-5.2-40.2 6.5-45.5 26.3-5.3 19.8 6.5 40.2 26.3 45.5l87.3 23.4-80.5 46.5c-17.8 10.2-23.9 33-13.6 50.8 6.9 12 19.4 18.6 32.2 18.6 6.3 0 12.7-1.6 18.6-5l80.9-46.7-23.6 87.9c-5.3 19.9 6.5 40.2 26.3 45.5 3.2.9 6.5 1.3 9.6 1.3 16.4 0 31.4-10.9 35.9-27.6l42.8-159.8 61-35.1 57.3 33v71.8L346.2 818.6c-14.5 14.5-14.5 38 0 52.6 7.3 7.3 16.7 10.9 26.3 10.9 9.5 0 19-3.6 26.3-10.9l63.9-63.9v93c0 20.6 16.6 37.2 37.2 37.2s37.2-16.6 37.2-37.2v-93.5l64.4 64.4c7.3 7.3 16.7 10.9 26.3 10.9s19-3.6 26.3-10.9c14.5-14.5 14.5-38.1 0-52.6l-117-117v-71l57.8-33.4 60.9 35.1 42.8 159.8c4.5 16.6 19.4 27.6 35.9 27.6 3.2 0 6.4-.4 9.6-1.3 19.9-5.3 31.6-25.7 26.3-45.5L746.8 685l81 46.7c5.9 3.4 12.3 5 18.6 5 12.9 0 25.3-6.7 32.2-18.6 10.2-17.8 4.2-40.5-13.6-50.8l-80.5-46.5 87.3-23.4c19.6-5.3 31.4-25.8 26-45.5zm-340.3-19.1L499.9 566l-57.5-33.2-.1-66.5 57.6-33.3 57.5 33.3v66.5z"/></svg>