<svg xmlns="http://www.w3.org/2000/svg" height="1000" width="1000">
<style> .weatherIcon{fill: rgb(134, 161, 172)}</style>
<path class="weatherIcon" d="M500.8 261.4c-130.4-.3-236 104.4-236.2 234-.2 129.6 104.8 235.2 234 235.6 130.7.3 236.4-104.5 236.6-234.6 0-129.7-104.7-234.8-234.4-235zM266.7 629.6c-9.2-15.2-28.4-20.4-44.7-12-4.6 2.4-9 5.1-13.5 7.7-25 14.4-50.1 28.6-74.9 43.3-14.2 8.4-19.8 23.8-15.2 38.9 4.4 14.3 17.4 23.8 33.4 23.7 4.5.4 9.6-.9 14.2-3.5 30.3-17.3 60.8-34.3 90.7-52.4 15.8-9.6 19.6-29.9 10-45.7zm463.4-274.2c4.2 13.6 17.6 23.6 31.9 23.7 5.3.2 10.5-.9 15-3.4 30.6-17.4 61.3-34.6 91.4-52.6 15.3-9.2 19.4-28.9 10.8-44.2-8.7-15.4-27.5-22.6-43.2-14.1-31.7 17.2-62.8 35.3-93.7 53.8-12.1 7.4-16.4 23.1-12.2 36.8zm-223-123.7c18.8-.1 33.4-15 33.5-34.6.1-16.4 0-32.9 0-49.3V97.6c-.4-19-14.9-33.6-33.4-33.7-18.9-.1-33.9 14.6-34 34-.2 33.2-.2 66.4 0 99.6.1 19.3 15.1 34.2 33.9 34.2zm.1 536.2c-18.9-.1-33.9 14.6-34 34-.2 33.2-.2 66.4 0 99.6.1 19.4 15 34.3 33.8 34.3 18.8-.1 33.4-15 33.5-34.6.1-16.4 0-32.9 0-49.4v-50.2c-.3-18.9-14.8-33.6-33.3-33.7zM196.7 530c19-.1 33.3-13.6 34.1-32 .8-18.5-12.9-34.6-32-35-34.7-.7-69.4-.7-104 0-18.6.4-32.8 16.6-32.2 34.2.4 18.6 15.3 32.7 34.4 32.8 16.8.1 33.5 0 50.3 0 16.5 0 32.9.1 49.4 0zm708.7-67c-34.7-.7-69.4-.7-104 0-18.6.4-32.8 16.6-32.2 34.2.5 18.5 15.4 32.7 34.5 32.8 16.8.1 33.5 0 50.3 0 16.5 0 32.9.1 49.4 0 19-.1 33.3-13.6 34.1-32 .8-18.5-12.9-34.6-32.1-35zM655 275.2c11.8-.2 21.8-4.6 27.8-14.7 18-30.2 35.9-60.6 52.9-91.3 8.6-15.5 2.1-34.8-13.1-43.6-15.3-8.9-35.2-5.4-44.4 9.7-18.5 30.3-36.5 60.9-53.3 92.1-11.7 21.8 5.4 47.7 30.1 47.8zm211.4 393.4c-28.8-16.9-57.8-33.7-86.9-50-17.3-9.7-37.1-4.2-46.5 12.1-9.7 16.8-4.1 36.2 13.9 46.6 27.9 16.2 55.9 32.3 83.9 48.3 5.8 3.3 11.9 6 18.4 5.5 15.4 0 28.7-9.9 32.8-23.9 4.4-15-1.4-30.2-15.6-38.6zm-547.1-417c6.5 11 16.3 16.8 29.3 16.7 25.9-.1 41.9-26.8 29.2-49.8-16.4-29.5-33.4-58.7-50.7-87.6-10-16.7-29.7-21.4-45.9-12-16.1 9.5-21.7 29-12.2 45.9 16.5 29.1 33.4 58 50.3 86.8zm-185.1 73.9c28.6 16.7 57.4 33.1 86.1 49.7 5.4 3.1 11.1 4.7 15.5 4.5 16.9-.1 30.1-9.9 34.2-24 4.2-14.8-1.3-30.1-15-38.1-29-17.1-58.2-34-87.6-50.5-17.2-9.7-37.3-4-46.5 12.3-9.5 16.8-4.2 35.9 13.3 46.1zm235.6 410.2c-16.9-10-36.9-4.4-47.5 13.7-16.3 27.9-32.4 55.9-48.6 83.8-3.2 5.6-5.6 11.4-5.2 17.5-.1 15.8 9.5 28.8 23.8 33 15.2 4.5 30.4-1.1 38.8-15.2 16.8-28.3 33.1-56.8 49.5-85.3 10.2-17.8 5.6-37.8-10.8-47.5zm311.5 6.5c-10.7-18.2-30.6-23.8-47.4-13.9-16.4 9.7-21.1 29.7-10.9 47.5 8.1 14.3 16.5 28.4 24.8 42.7 8.4 14.5 16.4 29.1 25.2 43.4 8.4 13.7 24.3 19.2 39.2 14.5 13.7-4.3 23-17.4 23-33.6.4-5.2-1.9-11.1-5.1-16.7-16.3-28-32.4-56-48.8-83.9z"/></svg>