<svg xmlns="http://www.w3.org/2000/svg" height="1000" width="1000">
<style> .weatherIcon{fill: rgb(134, 161, 172)}</style>

<path class="weatherIcon" d="M885.5 562.9c-54.4-52.9-119.2-68-191.4-41.6-13.5 5-18.9 5.4-25.1-10.1C621.9 394.1 512.4 329.5 388.1 344c-113.7 13.2-203.3 103.1-224.3 224.8-1.3 7.3-.2 16.5-9.1 20.3-20.2 8.5-36.1 20.7-49.1 35.1l-.1-.3s-95.4 90.3-2.1 194.4c2.6 3 5.1 6.1 7.9 8.8.5.5.8.9 1.2 1.4l.1-.2c22.6 21.7 51.6 34.8 87.2 38.1 36.4 3.3 73.3.2 109.9 1.2l315.5-.5c48 0 91.4 1.2 134.7-.3 76.5-2.6 131.7-39.5 162.6-109.6 29.3-66.1 14.9-143.8-37-194.3zM430.9 305.6c-2.6 5.1-4.7 10.3-6.5 15.6 90.2-2.3 170.4 37.5 221.3 108.9 2.6-4 5.1-8.1 7.3-12.5 30.8-61.2 6.2-135.7-55-166.5-61.6-31.1-136.3-6.7-167.1 54.5zM684 349.8c-1.2 7.4 2.7 15.3 9.5 18.7 2.5 1.4 5.1 2.1 7.9 1.9 18.6-1 37.1-1.8 55.7-3.2 9.4-.7 16-9 15.6-18.3-.5-9.4-7.7-17.2-17.1-16.9-19 .6-38 1.8-57 3.2-7.6.7-13.3 7.1-14.6 14.6zm-76-111.4c8.9 4.4 19.3.8 24-8.4 4-7.7 7.8-15.5 11.7-23.3l11.5-22.9.4-.8c4.3-9.1.9-19.4-7.8-23.9-8.9-4.5-19.5-1.1-24.1 8-7.9 15.6-15.8 31.3-23.6 47-4.5 9.3-1 19.9 7.9 24.3zm-264.5 43.8c7.9 4 15.8 7.9 23.8 11.9l23.3 11.7c9 4.5 19 1.5 23.7-7 4.8-8.6 2.1-19.4-6.8-24.1-16.2-8.6-32.6-16.8-49.1-24.6-8.9-4.2-19.4.1-23.3 8.5-4.2 8.9-.6 19.1 8.4 23.6zm348.7 135c-8.9-4.2-19.4.1-23.3 8.5-4.1 8.9-.5 19.1 8.5 23.7 7.9 4 15.8 7.9 23.8 11.9l23.3 11.7c9 4.5 19 1.5 23.7-7 4.8-8.6 2.1-19.4-6.8-24.1-16.3-8.7-32.7-16.9-49.2-24.7zm-24.7-123.1c5.6 2.7 11.4 3 16.6-.4 15.7-10 31.3-20.1 46.6-30.6 7.7-5.3 9.2-15.9 4.2-23.7-5.1-7.8-15.4-10.9-23.3-5.9-15.9 9.9-31.7 20.1-47 30.9-10.6 7.4-8.7 23.8 2.9 29.7zm-143-75.9c12.3 6.1 26.2-2.7 25.6-16.6-.7-17.8-1.9-35.6-3.2-53.4-.7-10.3-9-17.2-18.8-16.5-9.9.7-17.1 8.6-16.6 18.8.9 17.7 2 35.3 3.2 53 .3 6.6 3.6 11.7 9.8 14.7zm-86 20.1c1.8 2.7 4.1 4.8 6.3 5.8 8 4 16.6 2.5 21.8-3.3 5.5-6 6.5-14.5 2-21.6-9.7-15-19.5-29.8-29.4-44.6-5.8-8.6-16.7-10.7-24.9-5.2-8.4 5.7-10.4 15.9-4.6 24.9 9.4 14.8 19.1 29.4 28.8 44z"/></svg>