<svg xmlns="http://www.w3.org/2000/svg" height="1000" width="1000"><path d="M109 398.9c31-3.7 57.9-16.1 80.3-37.7 6.3-6 9.6-5 15.5.3 56.7 50.7 128.6 51 185.9.5 6.8-6 10.1-6 16.8 0 28 25.1 60.3 37.6 92.7 37.6 32.3 0 64.7-12.5 92.7-37.6 6.7-6 10-6 16.8 0 57.2 50.5 129.1 50.2 185.9-.5 5.9-5.3 9.3-6.3 15.5-.3 22.4 21.6 49.4 34 80.3 37.7 21 2.5 35.6-3.8 42.8-18.6 10.7-22.1-3.2-46.5-29.5-48.2-31.2-2.1-51.5-19.4-67.5-43.4-7.5-11.4-15.7-20.7-29.2-24.1h-10.2c-13 3.9-21.9 12.3-28.2 24.2-3.8 7.1-9.3 13-14.9 18.6-26.2 26.6-58.5 31.9-87.4 14.2-13.3-8.1-24.2-19.2-32-32.6-6.9-11.8-15.5-20.7-29-24.3h-10.2c-13 3.8-21.8 12.3-28.4 23.9-6.8 12-16.5 21.8-27.7 29.9-12.3 9-25.6 13.6-39.7 13.4-14.2.2-27.5-4.4-39.7-13.4-11.1-8.1-20.8-17.9-27.7-29.9-6.6-11.6-15.4-20.1-28.4-23.9h-10.2c-13.5 3.6-22.1 12.5-29 24.3-7.9 13.4-18.7 24.4-32 32.6-29 17.8-61.3 12.4-87.4-14.2-5.6-5.7-11.1-11.6-14.9-18.6-6.3-11.8-15.2-20.2-28.2-24.2h-10.2c-13.6 3.4-21.7 12.7-29.2 24.1-15.9 24.1-36.2 41.3-67.5 43.4-26.3 1.8-40.2 26.2-29.5 48.2 7 15 21.6 21.2 42.6 18.6zm795.5 107.7c-31.2-2.1-51.5-19.4-67.5-43.4-7.5-11.4-15.7-20.7-29.2-24.1h-10.2c-13 3.9-21.9 12.3-28.2 24.2-3.8 7.1-9.3 13-14.9 18.6-26.2 26.6-58.5 31.9-87.4 14.2-13.3-8.1-24.2-19.2-32-32.6-6.9-11.8-15.5-20.7-29-24.3h-10.2c-13 3.8-21.8 12.3-28.4 23.9-6.8 12-16.5 21.8-27.7 29.9-12.3 9-25.6 13.6-39.7 13.4-14.2.2-27.5-4.4-39.7-13.4-11.1-8.1-20.8-17.9-27.7-29.9-6.6-11.6-15.4-20.1-28.4-23.9h-10.2c-13.5 3.6-22.1 12.5-29 24.3-7.9 13.4-18.7 24.4-32 32.6-29 17.8-61.3 12.4-87.4-14.2-5.6-5.7-11.1-11.6-14.9-18.6-6.3-11.8-15.2-20.2-28.2-24.2h-10.2c-13.6 3.4-21.7 12.7-29.2 24.1-15.9 24-36.2 41.3-67.5 43.4-26.3 1.8-40.2 26.2-29.5 48.2 7.3 15 21.9 21.2 42.8 18.6 31-3.7 57.9-16.1 80.3-37.7 6.3-6 9.6-5 15.5.3 56.7 50.7 128.6 51 185.9.5 6.8-6 10.1-6 16.8 0 28 25.1 60.3 37.6 92.7 37.6 32.3 0 64.7-12.5 92.7-37.6 6.7-6 10-6 16.8 0 57.2 50.5 129.1 50.2 185.9-.5 5.9-5.3 9.3-6.3 15.5-.3 22.4 21.6 49.4 34 80.3 37.7 21 2.5 35.6-3.8 42.8-18.6 10.4-22-3.4-46.4-29.7-48.2zm0 161.1c-31.2-2.1-51.5-19.4-67.5-43.4-7.5-11.4-15.7-20.7-29.2-24.1h-10.2c-13 3.9-21.9 12.3-28.2 24.2-3.8 7.1-9.3 13-14.9 18.6-26.2 26.6-58.5 31.9-87.4 14.2-13.3-8.1-24.2-19.2-32-32.6-6.9-11.8-15.5-20.7-29-24.3h-10.2c-13 3.8-21.8 12.3-28.4 23.9-6.8 12-16.5 21.8-27.7 29.9-12.3 9-25.6 13.6-39.7 13.4-14.2.2-27.5-4.4-39.7-13.4-11.1-8.1-20.8-17.9-27.7-29.9-6.6-11.6-15.4-20.1-28.4-23.9h-10.2c-13.5 3.6-22.1 12.5-29 24.3-7.9 13.4-18.7 24.4-32 32.6-29 17.8-61.3 12.4-87.4-14.2-5.6-5.7-11.1-11.6-14.9-18.6-6.3-11.8-15.2-20.2-28.2-24.2h-10.2c-13.6 3.4-21.7 12.7-29.2 24.1-15.9 24.1-36.2 41.3-67.5 43.4-26.3 1.8-40.2 26.2-29.5 48.2 7.3 15 21.9 21.2 42.8 18.6 31-3.7 57.9-16.1 80.3-37.7 6.3-6 9.6-5 15.5.3 56.7 50.7 128.6 51 185.9.5 6.8-6 10.1-6 16.8 0 28 25.1 60.3 37.6 92.7 37.6 32.3 0 64.7-12.5 92.7-37.6 6.7-6 10-6 16.8 0 57.2 50.5 129.1 50.2 185.9-.5 5.9-5.3 9.3-6.3 15.5-.3 22.4 21.6 49.4 34 80.3 37.7 21 2.5 35.6-3.8 42.8-18.6 10.4-22-3.4-46.4-29.7-48.2z"/></svg>